<?xml version="1.0" standalone="no"?>
<!DOCTYPE svg PUBLIC "-//W3C//DTD SVG 1.1//EN" "http://www.w3.org/Graphics/SVG/1.1/DTD/svg11.dtd" >
<svg xmlns="http://www.w3.org/2000/svg" xmlns:xlink="http://www.w3.org/1999/xlink" version="1.1">
<metadata></metadata>
<defs>
<font id="jellybaby_itcbold" horiz-adv-x="1024" >
<font-face units-per-em="2048" ascent="1638" descent="-410" />
<missing-glyph horiz-adv-x="434" />
<glyph horiz-adv-x="0" />
<glyph unicode="&#xd;" horiz-adv-x="0" />
<glyph unicode=" "  horiz-adv-x="434" />
<glyph unicode="&#x09;" horiz-adv-x="434" />
<glyph unicode="&#xa0;" horiz-adv-x="434" />
<glyph unicode="!" horiz-adv-x="600" d="M86 928q1 34 1.5 64t0.5 91v56q0 90 6 136.5t26.5 74.5t61.5 38.5t115 10.5q76 0 120 -10t64.5 -37.5t26.5 -74t6 -136.5q0 -15 -0.5 -28t-1.5 -30q0 -30 2 -90t2 -88q0 -248 -51.5 -366.5t-163.5 -118.5q-115 0 -165 123t-50 385zM109 166q0 55 25 98.5t69 69.5t98 26 q55 0 98.5 -25.5t69 -69.5t25.5 -99q0 -54 -26 -98t-69 -69.5t-98 -25.5q-54 0 -98 26t-69 69t-25 98z" />
<glyph unicode="&#x22;" horiz-adv-x="713" d="M76 877v561h219v-561h-219zM416 877v561h223v-561h-223z" />
<glyph unicode="#" horiz-adv-x="1077" d="M18 442q3 34 20.5 49.5t48 19t95.5 3.5h109l59 252h-69q-64 0 -101 4.5t-55.5 18.5t-18.5 40q0 41 41 51.5t152 10.5h78l76 305q24 98 90 98h4q26 -13 26 -43q0 -20 -10 -67l-74 -293h195l68 301q23 98 82 98h4q30 -11 30 -47q0 -30 -6 -57l-67 -295q131 -2 169.5 -4.5 t65 -15t27.5 -42.5q-3 -27 -22 -41.5t-51.5 -18.5t-99.5 -4t-116 -1l-59 -250q128 -2 165.5 -4.5t62 -15t24.5 -43.5q0 -27 -15 -39.5t-52 -18t-91 -5.5t-123 -1l-74 -307q-21 -89 -76 -92q-38 9 -38 57q0 19 6 43l69 297h-194l-64 -299q-21 -98 -71 -98h-5q-40 11 -40 63 q0 27 4 43l63 295q-34 0 -53 -0.5t-41 -1.5q-79 0 -113.5 11.5t-34.5 43.5zM403 514h193l61 248h-196z" />
<glyph unicode="$" horiz-adv-x="1049" d="M53 315q0 77 42.5 119.5t117.5 42.5q71 0 125.5 -33.5t88 -98t44.5 -161.5q102 60 102 144q0 34 -17 59.5t-46.5 44t-83.5 43.5t-100 47q-248 125 -248 326q0 79 36.5 142.5t108 107.5t176.5 65v101q0 47 27 72.5t76 25.5q108 0 108 -98v-93q171 -12 258.5 -75.5 t87.5 -169.5q0 -70 -43 -109t-120 -39q-103 0 -167 76.5t-77 216.5q-105 -76 -105 -158q0 -41 24.5 -73t70 -57.5t125.5 -59.5q108 -46 177 -90.5t103.5 -100.5t34.5 -139q0 -118 -93.5 -195.5t-275.5 -107.5v-98q0 -96 -102 -96q-109 0 -109 96v94q-167 12 -256.5 72 t-89.5 157z" />
<glyph unicode="%" horiz-adv-x="1677" d="M82 893q0 142 39.5 243.5t111.5 155.5t166 54q97 0 170 -52.5t112.5 -154t39.5 -242.5q0 -217 -86.5 -338t-235.5 -121q-143 0 -230 121t-87 334zM379 930q0 -152 26.5 -222.5t88.5 -70.5q43 0 70 31.5t38.5 98.5t11.5 163q0 147 -28 213.5t-92 66.5q-62 0 -88.5 -67 t-26.5 -213zM506 -2q0 25 31.5 111.5t83.5 211t167 390.5q29 67 108.5 250.5t116.5 260t65.5 116.5t51.5 40q20 0 32 -15t12 -40q0 -39 -79.5 -234t-252.5 -583q-56 -123 -105.5 -238.5t-80.5 -180.5t-57.5 -101.5t-51.5 -36.5q-19 0 -30 13.5t-11 35.5zM961 438 q0 142 39.5 243.5t111.5 155.5t166 54q97 0 169.5 -52.5t112 -154t39.5 -242.5q0 -220 -86.5 -339t-240.5 -119q-139 0 -225 121.5t-86 332.5zM1257 475q0 -152 26.5 -222.5t88.5 -70.5q43 0 70 31.5t39 96.5t12 165q0 144 -28.5 212.5t-92.5 68.5q-61 0 -88 -67.5 t-27 -213.5z" />
<glyph unicode="&#x26;" horiz-adv-x="1313" d="M72 889q0 86 38.5 157t111 123t177 79.5t230.5 27.5q116 0 204 -38t136.5 -102.5t48.5 -142.5q0 -81 -44 -128.5t-118 -47.5q-60 0 -106.5 36t-72.5 106t-26 167v29q-164 -82 -164 -233q0 -103 67 -160t189 -57q123 0 189.5 16t97.5 61q30 43 49 60.5t51 17.5 q29 0 38.5 -16t9.5 -58q0 -78 45 -81q26 -2 42.5 -3.5t28.5 -5t19.5 -12t7.5 -27.5q0 -28 -36 -46.5t-103 -18.5h-13q-26 0 -37.5 -5.5t-23.5 -25.5q-35 -60 -56 -85t-55 -25q-26 0 -42.5 25.5t-16.5 72.5q0 20 2 31q-61 6 -96 6q-162 0 -233.5 -57t-71.5 -189t79 -231v22 q0 95 31 167.5t83.5 112.5t111.5 40q46 0 77.5 -19t48.5 -54.5t17 -84.5q0 -82 -59.5 -152.5t-164.5 -111.5t-241 -41q-116 0 -202.5 38.5t-132.5 109t-46 163.5q0 183 203 266q-88 21 -149 65t-92 109.5t-31 149.5z" />
<glyph unicode="'" horiz-adv-x="371" d="M76 877v561h219v-561h-219z" />
<glyph unicode="(" horiz-adv-x="797" d="M72 512q0 270 22 473t63.5 336t103 200.5t142.5 67.5q65 0 128.5 -34t119.5 -99q44 -51 68 -107.5t24 -99.5q0 -63 -51 -63q-16 0 -65 23.5t-80 23.5q-86 0 -130 -189.5t-44 -568.5q0 -337 45 -512.5t129 -175.5q18 0 42 9t42.5 17.5t33.5 14.5t27 6q51 0 51 -63 q0 -44 -23.5 -99t-68.5 -108q-55 -64 -119.5 -98.5t-128.5 -34.5q-80 0 -142 68t-103.5 201.5t-63.5 337.5t-22 474z" />
<glyph unicode=")" horiz-adv-x="764" d="M43 -229q0 63 51 63q13 0 33.5 -9t34 -15t36 -14.5t40.5 -8.5q56 0 95.5 85t60 253t20.5 418q0 342 -46 516t-130 174q-32 0 -80 -23.5t-64 -23.5q-51 0 -51 63q0 39 25 97.5t67 109.5q115 133 248 133q82 0 144 -68.5t103.5 -203t63 -334.5t21.5 -475 q0 -534 -84.5 -805.5t-247.5 -271.5q-64 0 -128.5 34.5t-119.5 98.5q-44 52 -68 109t-24 98z" />
<glyph unicode="*" horiz-adv-x="909" d="M86 1024q0 57 201 182q-99 62 -150 110t-51 73q0 24 43 24q72 0 246 -76q12 136 33.5 208.5t46.5 72.5t47 -72.5t33 -206.5q169 74 241 74q43 0 43 -22q0 -25 -53.5 -75.5t-147.5 -109.5q99 -63 150 -111t51 -73q0 -23 -43 -23q-69 0 -241 74q-10 -134 -32.5 -206 t-47.5 -72t-48.5 74.5t-31.5 205.5q-178 -76 -246 -76q-43 0 -43 25z" />
<glyph unicode="+" horiz-adv-x="1706" d="M254 496v231h481v494h238v-494h479v-231h-479v-496h-238v496h-481z" />
<glyph unicode="," horiz-adv-x="510" d="M47 184q0 83 57.5 138t147.5 55q101 0 156 -61.5t55 -176.5q0 -94 -39.5 -170.5t-110 -121t-159.5 -44.5q-105 0 -105 45q0 15 9.5 19.5t35 10t49.5 16.5q87 38 95 135l-41 -2h-7q-59 0 -101 45t-42 112z" />
<glyph unicode="-" horiz-adv-x="696" d="M76 496q0 55 11.5 79.5t42 31.5t101.5 7h103q31 0 49.5 -0.5t40.5 -1.5h47q60 0 85.5 -7.5t34.5 -31.5t9 -79q0 -56 -10.5 -79t-37.5 -29.5t-89 -6.5h-37q-28 0 -48 -0.5t-46 -1.5q-23 1 -43.5 1.5t-63.5 0.5q-73 0 -100.5 6t-38 29t-10.5 82z" />
<glyph unicode="." horiz-adv-x="496" d="M59 166q0 42 15 77t41 61.5t60.5 41t76.5 14.5q81 0 136.5 -55.5t55.5 -138.5q0 -80 -56.5 -136.5t-135.5 -56.5q-55 0 -98 25.5t-69 69.5t-26 98z" />
<glyph unicode="/" horiz-adv-x="846" d="M-119 -430q0 37 51 158.5t140 306t260 532.5q114 231 195 392.5t132.5 261t83.5 159.5q38 67 67.5 97t63.5 30q30 0 50 -21t20 -50q0 -36 -46 -145.5t-126.5 -278t-263.5 -543.5q-177 -360 -283.5 -568t-142.5 -270q-40 -70 -68.5 -101.5t-66.5 -31.5q-28 0 -47 21 t-19 51z" />
<glyph unicode="0" horiz-adv-x="1133" d="M68 635q0 199 61 347t172.5 225t261.5 77q113 0 207 -43.5t159 -125t100.5 -201.5t35.5 -273q0 -155 -35 -279t-100 -207.5t-158.5 -127t-208.5 -43.5q-111 0 -203 44t-157.5 128.5t-100 205t-34.5 273.5zM526 662q0 -133 23 -227t64 -141.5t96 -47.5q87 0 137.5 107 t50.5 311q0 195 -51 301t-137 106q-54 0 -95.5 -47.5t-64.5 -139.5t-23 -222z" />
<glyph unicode="1" horiz-adv-x="715" d="M-55 1030q0 23 11 39.5t32 31.5t59 36q94 53 180 87t152.5 50t107.5 16q61 0 95 -28.5t34 -79.5l-2 -1086q0 -53 -54.5 -82.5t-158.5 -29.5q-100 0 -155.5 30.5t-55.5 81.5v865q0 20 -7.5 32.5t-22.5 12.5q-2 0 -4.5 -0.5t-5.5 -1.5l-150 -37h-8q-18 0 -32.5 17.5 t-14.5 45.5z" />
<glyph unicode="2" horiz-adv-x="1036" d="M27 965q0 95 55.5 167.5t159 113t247.5 40.5q200 0 315.5 -97t115.5 -263q0 -124 -72 -314q-14 -38 -64 -132t-127 -242q-10 -19 -10 -48t33 -32l281 -15q19 -2 33 -19t14 -44q0 -25 -22 -47.5t-56 -26.5q-57 -9 -248 -16.5t-422 -7.5q-112 0 -162.5 12.5t-50.5 42.5 q0 23 24.5 66t80 122.5t114.5 165.5q77 113 123.5 203t72 175t25.5 161q0 147 -104 233q2 -22 2 -65q0 -99 -25 -168.5t-71 -106.5t-105 -37q-71 0 -114 48.5t-43 130.5z" />
<glyph unicode="3" horiz-adv-x="997" d="M-6 268q0 82 45.5 130t118.5 48q59 0 104.5 -36.5t71.5 -107t26 -169.5v-29q164 83 164 242q0 87 -60.5 138.5t-184.5 72.5l-95 16q-39 8 -45 41q5 25 27 36.5t76.5 27.5t83.5 29q77 36 112 91.5t35 141.5q0 116 -80 223v-22q0 -95 -31.5 -170t-83 -114.5t-110.5 -39.5 q-67 0 -105 42.5t-38 117.5q0 83 59.5 154.5t165 113t239.5 41.5q85 0 157.5 -22.5t122 -63.5t75.5 -100t26 -129q0 -185 -202 -269q272 -68 272 -327q0 -116 -67 -204.5t-195 -137.5t-295 -49q-116 0 -204 38t-136.5 104t-48.5 142z" />
<glyph unicode="4" horiz-adv-x="1077" d="M27 416q0 37 14 127t46 210.5t83 256.5q60 158 92 210t90 52q33 0 81.5 -13t94.5 -36.5t82 -55.5q21 -17 21 -53q0 -29 -13 -74l-104 -436q-6 -24 -6 -43q0 -38 20 -62t50 -24h90q28 0 28 27l-20 723q0 25 28 40t76 15q55 0 85 -15.5t30 -39.5l-18 -719q0 -25 28 -25 l113 -6q35 -1 56.5 -22t21.5 -52q0 -28 -17 -47.5t-43 -21.5l-108 -6q-7 0 -14 -8t-7 -17l-12 -197q-6 -118 -221 -118q-205 0 -211 118l-12 203q0 25 -23 25h-309q-49 0 -70.5 19.5t-21.5 64.5z" />
<glyph unicode="5" horiz-adv-x="1012" d="M35 254q0 88 48.5 139t133.5 51q91 0 140 -65t49 -193q0 -32 -3 -49q77 39 120.5 106.5t43.5 147.5q0 66 -31.5 115.5t-92 75.5t-146.5 26q-90 0 -191 -26l-24 596v4q0 42 27.5 67t72.5 25h11l681 -39q37 -2 57.5 -21.5t20.5 -52.5q0 -29 -17.5 -48.5t-41.5 -20.5 l-416 -17l-33 -313q127 26 220 26q92 0 159 -37.5t103.5 -107.5t36.5 -162t-48 -186q-69 -136 -217.5 -222.5t-322.5 -86.5q-109 0 -185 33t-115.5 94t-39.5 141z" />
<glyph unicode="6" horiz-adv-x="1047" d="M66 559q0 177 36 312t104 227.5t167 140t223 47.5q109 0 197 -36.5t135 -100.5t47 -139q0 -73 -40.5 -115.5t-107.5 -42.5q-175 0 -190 305q-76 -38 -124 -136.5t-48 -223.5q0 -64 10 -105q78 86 223 86q140 0 221.5 -91.5t81.5 -256.5q0 -134 -57.5 -234.5t-164.5 -155 t-253 -54.5q-108 0 -192 37t-145 112t-92 182.5t-31 241.5zM569 387q0 -99 43.5 -165t100.5 -66q56 0 99.5 65t43.5 166q0 66 -20.5 120.5t-53.5 84t-69 29.5q-38 0 -71 -29.5t-53 -84t-20 -120.5z" />
<glyph unicode="7" horiz-adv-x="840" d="M-37 1176q0 70 74 73l713 39h10q48 0 79 -22.5t31 -55.5q0 -12 -2 -18l-360 -1147q-8 -25 -66.5 -44t-146.5 -19q-103 0 -172.5 31t-69.5 67q0 6 2 10l318 961q1 2 1.5 4t0.5 4q0 12 -9.5 23.5t-19.5 11.5l-317 12q-25 2 -45.5 23t-20.5 47z" />
<glyph unicode="8" horiz-adv-x="1067" d="M47 322q0 178 174 276q-94 121 -94 285q0 123 49 214.5t139 140t213 48.5q129 0 220.5 -47.5t139.5 -137.5t48 -214q0 -84 -21.5 -153.5t-70.5 -133.5q178 -97 178 -274q0 -342 -492 -342q-226 0 -354.5 92t-128.5 246zM465 895q0 -102 49.5 -170t118.5 -68 q67 0 115.5 67t48.5 171q0 67 -23 123.5t-61 86.5t-80 30q-44 0 -83 -30.5t-62 -86t-23 -123.5zM545 317q0 -87 48.5 -141.5t119.5 -54.5q69 0 116.5 54.5t47.5 141.5t-47.5 143t-116.5 56q-71 0 -119.5 -56t-48.5 -143z" />
<glyph unicode="9" horiz-adv-x="1085" d="M76 844q0 106 30 189t86 139t141 86t191 30q159 0 270 -69t168.5 -207t57.5 -330q0 -169 -33.5 -297.5t-99 -218t-160 -134t-217.5 -44.5q-110 0 -199 36.5t-137.5 98.5t-48.5 133q0 80 40 123t109 43q85 0 132 -75t59 -230q74 37 117 131.5t43 228.5q0 49 -13 105 q-43 -43 -96.5 -64.5t-116.5 -21.5q-99 0 -172 41.5t-112 121t-39 185.5zM223 887q0 -101 43.5 -166.5t100.5 -65.5t100 65.5t43 166.5q0 66 -20.5 120.5t-53.5 83.5t-69 29q-38 0 -70.5 -29t-53 -83.5t-20.5 -120.5z" />
<glyph unicode=":" horiz-adv-x="518" d="M63 166q0 42 15 77t41 61.5t60.5 41t76.5 14.5q55 0 98.5 -25.5t69 -69.5t25.5 -99q0 -54 -26 -98t-69 -69.5t-98 -25.5t-98.5 25.5t-69 69t-25.5 98.5zM63 756q0 42 15 77t41 61.5t60.5 41t76.5 14.5q55 0 98.5 -25.5t69 -69.5t25.5 -99t-25.5 -98.5t-69 -69 t-98.5 -25.5t-98.5 25.5t-69 69t-25.5 98.5z" />
<glyph unicode=";" horiz-adv-x="498" d="M47 184q0 83 57.5 138t147.5 55q101 0 156 -61.5t55 -176.5q0 -94 -39.5 -170.5t-110 -121t-159.5 -44.5q-105 0 -105 45q0 15 9.5 19.5t35 10t49.5 16.5q87 38 95 135l-41 -2h-7q-59 0 -101 45t-42 112zM55 756q0 42 15 77t41 61.5t60.5 41t76.5 14.5q81 0 136.5 -55.5 t55.5 -138.5q0 -82 -55.5 -137.5t-136.5 -55.5q-55 0 -98.5 25.5t-69 69t-25.5 98.5z" />
<glyph unicode="&#x3c;" horiz-adv-x="1706" d="M264 494v233l1178 487v-253l-854 -351l854 -348v-254z" />
<glyph unicode="=" horiz-adv-x="1706" d="M254 272v230h1198v-230h-1198zM254 719v231h1198v-231h-1198z" />
<glyph unicode="&#x3e;" horiz-adv-x="1706" d="M264 8v254l854 348l-854 351v253l1178 -487v-233z" />
<glyph unicode="?" horiz-adv-x="1020" d="M39 1192q0 99 91 154t261 55q99 0 193 -23t173.5 -65.5t141.5 -102.5q50 -47 76 -100.5t26 -105.5q0 -80 -36 -138.5t-106.5 -89.5t-168.5 -31q-112 0 -225 25l-23 -254q-5 -45 -40 -70.5t-99 -25.5q-62 0 -97.5 25.5t-41.5 70.5l-51 397q96 -20 190 -20q140 0 213.5 46 t73.5 130q0 42 -20.5 82.5t-58 72.5t-89.5 50v-31q0 -71 -22 -119t-66.5 -73t-110.5 -25q-89 0 -136.5 42.5t-47.5 123.5zM117 166q0 55 25 98.5t69 69.5t98 26q55 0 98.5 -25.5t69 -69.5t25.5 -99q0 -54 -26 -98t-69 -69.5t-98 -25.5q-54 0 -97.5 25.5t-69 69.5t-25.5 98z " />
<glyph unicode="@" horiz-adv-x="1528" d="M68 676q0 148 55 281t158 233q65 65 151 113.5t181.5 73t203.5 24.5q187 0 333.5 -73t226 -207t79.5 -310q0 -123 -50 -224.5t-145 -174t-231 -111.5t-301 -39q-299 0 -299 189q0 118 101.5 206.5t291.5 130.5v35q0 135 -49 189q-25 -120 -76.5 -186t-113.5 -66 q-46 0 -72.5 22.5t-26.5 57.5q0 58 45 114.5t125 91.5t176 35q259 0 259 -254q0 -73 -22 -187t-64 -247q169 39 257.5 145t88.5 271q0 151 -64.5 261t-184.5 168t-282 58q-146 0 -272 -53q-114 -47 -199 -131.5t-130.5 -198t-45.5 -237.5q0 -127 46.5 -239.5t133.5 -198.5 q90 -89 204 -136t237 -47q136 0 237 48t215 147l20 18t20.5 15t25.5 6q43 0 43 -45q0 -34 -56 -92q-59 -63 -138 -108t-171.5 -69t-195.5 -24q-142 0 -273.5 54.5t-238.5 158.5q-104 104 -158.5 235t-54.5 277zM547 485q0 -47 24.5 -73.5t67.5 -26.5q51 0 92 46t41 108 q0 50 -24 77t-66 27q-53 0 -94 -46.5t-41 -111.5z" />
<glyph unicode="A" horiz-adv-x="1108" d="M-18 86q0 20 17.5 99t51 197t92 286.5t138.5 365.5q57 138 99 216.5t89 119.5t106 41q66 0 109.5 -38.5t70.5 -96.5t83 -205q91 -243 152 -440t89.5 -316t28.5 -153q0 -44 -40 -85.5t-109 -67t-146 -25.5q-72 0 -112 17.5t-58 61.5l-59 156q-68 -29 -160 -29 q-108 0 -207 37l-53 -168q-21 -65 -90 -65q-41 0 -66.5 26.5t-25.5 65.5zM326 643q0 -125 52 -206t118 -81q63 0 110 75.5t47 189.5q0 83 -24.5 147.5t-64 100.5t-81.5 36t-77.5 -32.5t-57.5 -92.5t-22 -137z" />
<glyph unicode="B" horiz-adv-x="1059" d="M109 696q0 327 9.5 471.5t41.5 182.5q28 32 82.5 41.5t158.5 9.5q227 0 365 -35t206 -120.5t68 -235.5q0 -141 -71 -248t-197 -154q162 -83 162 -274q0 -182 -111.5 -266t-345.5 -84h-131q-144 0 -186 55q-22 27 -33 108.5t-14.5 218.5t-3.5 330zM540 330 q0 -95 37.5 -154t88.5 -59q50 0 88.5 59t38.5 154q0 63 -18 110.5t-47.5 75t-61.5 27.5q-49 0 -87.5 -59.5t-38.5 -153.5zM590 983q0 -103 45 -171.5t106 -68.5q63 0 108.5 68t45.5 172q0 106 -45.5 173t-108.5 67q-38 0 -73.5 -30.5t-56.5 -85t-21 -124.5z" />
<glyph unicode="C" horiz-adv-x="1149" d="M70 647q0 183 38 323.5t113.5 237t182 145t245.5 48.5q135 0 239 -39.5t159 -107.5t55 -152q0 -109 -51.5 -171.5t-139.5 -62.5q-71 0 -118.5 37t-73 111t-25.5 176q-145 -127 -145 -526q0 -216 65 -329.5t183 -113.5q55 0 90 18t83.5 50.5t71.5 32.5q30 0 48 -18t18 -48 q0 -37 -33 -76q-168 -198 -479 -198q-160 0 -279.5 78.5t-183 227.5t-63.5 357z" />
<glyph unicode="D" horiz-adv-x="1245" d="M113 705q0 179 1.5 272t5.5 172.5t15 130.5t27 70q46 51 188 51h279q191 0 312.5 -74t178 -228t56.5 -394q0 -180 -39 -316t-117 -226t-196 -134.5t-275 -44.5h-203q-140 0 -184 53q-32 41 -40.5 187.5t-8.5 480.5zM584 735q0 -214 55 -333t147 -119q47 0 85 30 t65.5 86.5t42 141.5t14.5 196q0 142 -26 242.5t-72.5 151.5t-108.5 51q-60 0 -105 -51t-71 -152t-26 -244z" />
<glyph unicode="E" horiz-adv-x="1030" d="M106 778q0 241 11 383t30 170q49 70 291 70q181 0 303.5 -15.5t182 -48.5t59.5 -86q0 -50 -22.5 -72t-73.5 -22q-28 0 -90 11.5t-88 11.5q-36 0 -53 -20t-21.5 -59t-5.5 -153t-2 -149l245 -31q21 -3 36.5 -21.5t15.5 -44.5q0 -25 -15 -46t-35 -25l-249 -56 q0 -77 -0.5 -116t-1.5 -84q0 -67 5.5 -102t22.5 -50.5t51 -15.5q26 0 87.5 11t97.5 12q50 0 72 -22t22 -73q0 -58 -61 -91.5t-181.5 -46.5t-322.5 -13q-166 0 -213 39q-32 26 -51 83.5t-28.5 147.5t-13.5 224t-4 300z" />
<glyph unicode="F" horiz-adv-x="913" d="M104 764q0 232 11 379t22 176q32 82 299 82q182 0 305 -15.5t182.5 -48.5t59.5 -86q0 -51 -22 -72.5t-74 -21.5q-27 0 -89 11.5t-91 11.5q-48 0 -60 -27q-12 -29 -18 -107.5t-13 -279.5l248 -31q20 -3 35.5 -22.5t15.5 -42.5q0 -28 -14.5 -48t-34.5 -24l-252 -55 q-4 -68 -4 -170q1 -42 1.5 -74.5t0.5 -58.5q0 -102 -19.5 -155t-75 -77t-167.5 -24q-60 0 -98.5 11t-63.5 40q-33 40 -47.5 92t-17.5 96.5t-8 167.5q-11 248 -11 373z" />
<glyph unicode="G" horiz-adv-x="1235" d="M72 659q0 179 38.5 319.5t111 233t180 141t247.5 48.5t243 -40t157.5 -110t54.5 -159q0 -68 -23.5 -118t-67.5 -78t-100 -28q-71 0 -118.5 37t-73 111t-25.5 176q-46 -38 -78.5 -111t-49.5 -177.5t-17 -235.5q0 -148 24.5 -260.5t61 -171t70.5 -58.5q32 0 32 39l2 406 q0 66 50 97.5t153 31.5q201 0 201 -127l2 -236v-2q0 -108 -68.5 -200t-192.5 -147.5t-276 -55.5q-170 0 -290.5 77.5t-184 230.5t-63.5 367z" />
<glyph unicode="H" horiz-adv-x="1270" d="M113 700q1 27 2 58.5t2 59t1.5 46t0.5 56.5q0 51 -0.5 80.5t-1.5 64.5q0 137 14.5 207t58.5 99.5t136 29.5q123 0 178.5 -28.5t71.5 -96t16 -217.5q0 -40 -0.5 -77.5t-1.5 -86.5q0 -43 4 -203q56 33 123 33q51 0 102 -25q4 164 4 213q0 73 -0.5 105t-1.5 67q0 106 3 156 t18 88.5t48 55t95 16.5q61 0 99.5 -20t48.5 -54q15 -46 20 -179t4 -452q0 -323 -4.5 -457t-19.5 -182q-11 -35 -49 -54t-99 -19q-73 0 -108 24.5t-45.5 79t-10.5 156.5v96q0 86 -7 133t-33 70.5t-81 23.5q-45 0 -106 -28q-4 -86 -4 -193v-55q0 -103 -8 -157t-33.5 -87.5 t-77.5 -48t-145 -14.5q-91 0 -135 29.5t-59 97.5t-15 206q1 40 1.5 72.5t0.5 81.5q0 40 -0.5 59.5t-1.5 48t-2.5 61.5t-1.5 60z" />
<glyph unicode="I" horiz-adv-x="678" d="M98 707q0 178 1 269.5t5.5 171.5t15.5 130.5t27 71.5q46 51 191 51q147 0 192 -51q35 -39 42.5 -175.5t7.5 -476.5q0 -24 -1.5 -60.5t-3.5 -87.5t-2 -79q1 -36 1.5 -66t0.5 -81q0 -114 -7.5 -175t-31 -97.5t-70 -52t-132.5 -15.5q-141 0 -187 55q-21 25 -32 106t-14 200 t-3 362z" />
<glyph unicode="J" horiz-adv-x="856" d="M-59 289q0 91 46.5 145.5t121.5 54.5q69 0 121.5 -37t87.5 -111t55 -189l-60 1136v6q0 107 238 107q240 0 240 -111v-2l-13 -571q-4 -234 -60 -399.5t-157 -249.5t-237 -84q-110 0 -196.5 41t-136.5 111.5t-50 152.5z" />
<glyph unicode="K" horiz-adv-x="1206" d="M111 707q0 335 7.5 469t41.5 174q45 51 190 51q111 0 160.5 -28t63.5 -95.5t14 -212.5q0 -30 -0.5 -66.5t-1.5 -85.5q0 -88 2 -141l162 301q77 147 150 215t169 68q88 0 142.5 -60t54.5 -166q0 -122 -58 -194t-151 -72q-49 0 -101.5 36.5t-85.5 100.5l-65 -104 q-60 -94 -60 -154q0 -54 34.5 -114.5t107.5 -151.5l188 -219q15 -15 15 -39t-23 -47l-119 -109q-81 -75 -178 -75q-47 0 -81 18.5t-60 59.5l-236 376v-336q0 -122 -125 -122q-103 0 -125 75q-32 121 -32 648z" />
<glyph unicode="L" horiz-adv-x="911" d="M104 725q0 281 11.5 429.5t36.5 188.5q34 56 192 56q70 0 124 -6t92.5 -15.5t66 -23.5t34.5 -44t7 -100q0 -71 -9 -156t-24 -190.5t-24 -190.5t-9 -169q0 -116 7.5 -180.5t29 -90.5t61.5 -26q22 0 79.5 11t88.5 11q93 0 93 -88q0 -45 -37.5 -75.5t-112.5 -47.5 t-191.5 -25.5t-281.5 -8.5q-113 0 -152 39q-37 40 -59.5 222.5t-22.5 479.5z" />
<glyph unicode="M" horiz-adv-x="1507" d="M55 184q0 45 9.5 110t22 134t52.5 283q34 183 58.5 292t40.5 162q37 127 81.5 182.5t116.5 55.5q52 0 94 -32t58 -85l166 -524l170 524q16 53 57.5 85t93.5 32q105 0 160 -131q23 -53 39.5 -111.5t30 -118t30.5 -145.5q64 -314 92.5 -475t28.5 -236q0 -108 -28 -155 t-95 -47q-39 0 -71.5 27.5t-38.5 66.5l-103 586l-114 -414q-29 -108 -99.5 -172t-150.5 -64q-81 0 -150 63.5t-100 172.5l-115 414l-102 -586q-6 -40 -40 -67t-75 -27q-64 0 -91.5 48t-27.5 152z" />
<glyph unicode="N" horiz-adv-x="1270" d="M113 750q0 197 2.5 296.5t10 171.5t24.5 107q36 76 202 76q90 0 140 -17.5t81 -70.5l351 -594v559q0 123 112 123q81 0 101 -80q12 -52 15 -198.5t3 -504.5v-249q1 -24 1.5 -44.5t0.5 -54.5q0 -92 -17 -143t-67 -82q-49 -31 -104.5 -48t-98.5 -17q-61 0 -102.5 39 t-97.5 135l-326 559l-2 -607q0 -122 -113 -122q-83 0 -98 79q-6 30 -10 116t-6 208.5t-2 362.5z" />
<glyph unicode="O" horiz-adv-x="1241" d="M72 694q0 162 39.5 296.5t111.5 225t171.5 138t223.5 47.5q273 0 413 -176.5t140 -524.5q0 -226 -66.5 -387t-191.5 -245t-295 -84q-122 0 -223.5 48t-173.5 139.5t-110.5 224t-38.5 298.5zM580 721q0 -215 55.5 -334t146.5 -119q63 0 109.5 52.5t72 154t25.5 248.5 q0 109 -15 191.5t-42 138.5t-65.5 85t-84.5 29q-60 0 -105 -51.5t-71 -152t-26 -242.5z" />
<glyph unicode="P" horiz-adv-x="1145" d="M111 1047q0 97 8 158t28.5 100t55.5 53q103 43 342 43q198 0 324 -45.5t187.5 -140t61.5 -244.5q0 -115 -35 -216.5t-101 -176.5t-151 -114.5t-184 -39.5q-91 0 -150 10t-105 39v-369q0 -120 -124 -120q-62 0 -93 27.5t-40 90.5q-11 84 -17.5 337.5t-6.5 607.5zM612 981 q0 -125 52 -206t118 -81q43 0 79 33.5t57.5 95.5t21.5 146q0 76 -24.5 138.5t-64 99t-81.5 36.5q-64 0 -111 -72.5t-47 -189.5z" />
<glyph unicode="Q" horiz-adv-x="1241" d="M68 694q0 217 67 378.5t191 245t288 83.5q273 0 413 -176.5t140 -524.5q0 -320 -126.5 -501.5t-364.5 -212.5l182 -211q29 -35 29 -86q0 -40 -18.5 -73.5t-51.5 -54t-72 -20.5q-88 0 -137 107l-37 338q-161 15 -273.5 102t-171 240.5t-58.5 365.5zM575 721 q0 -146 25.5 -247.5t71 -153.5t106.5 -52q63 0 109.5 52.5t72 154t25.5 248.5q0 109 -15 191.5t-42 138.5t-65.5 85t-84.5 29q-92 0 -147.5 -117t-55.5 -329z" />
<glyph unicode="R" horiz-adv-x="1167" d="M111 1042q0 142 20 217.5t72 96.5q51 23 142.5 33t238.5 10q276 0 405 -94.5t129 -298.5q0 -329 -291 -459l242 -289q14 -17 14 -39q0 -25 -22 -47l-117 -109q-81 -75 -176 -75q-33 0 -56.5 7.5t-44.5 26.5t-36 44l-239 399v-361q0 -120 -124 -120q-62 0 -93 27.5 t-40 90.5q-11 84 -17.5 335.5t-6.5 604.5zM612 979q0 -125 52 -206t118 -81q43 0 79 33.5t57.5 95.5t21.5 146q0 76 -24.5 138.5t-64 99t-81.5 36.5q-64 0 -111 -72.5t-47 -189.5z" />
<glyph unicode="S" horiz-adv-x="1112" d="M47 983q0 66 32.5 137.5t88.5 126.5q155 154 412 154q137 0 242 -43t160.5 -117t55.5 -166t-50 -143t-142 -51q-119 0 -190.5 98.5t-84.5 286.5q-79 -98 -79 -203q0 -62 33.5 -105.5t75.5 -69.5t179 -100q100 -53 163 -104.5t93.5 -114.5t30.5 -151q0 -93 -36.5 -172.5 t-106.5 -138.5t-168.5 -91t-216.5 -32q-142 0 -254 42t-172 116.5t-60 164.5q0 89 51 141t142 52q88 0 154 -44.5t104 -130.5t47 -212q94 67 94 176q0 70 -43 117.5t-145 105.5q-50 28 -84.5 47t-69.5 40t-63 42q-193 144 -193 342z" />
<glyph unicode="T" d="M-27 1251q0 54 58.5 87t180 48t300.5 15t300 -15.5t180 -48.5t59 -86q0 -94 -84 -94q-26 0 -73 10.5t-75 10.5q-56 0 -59 -45l-37 -1049q-1 -57 -51 -78.5t-158 -21.5q-77 0 -122 8.5t-67.5 30t-23.5 61.5l-37 1049q-3 45 -59 45q-27 0 -75 -10.5t-73 -10.5q-84 0 -84 94 z" />
<glyph unicode="U" horiz-adv-x="1288" d="M92 639q0 259 3 388.5t14 212.5t34 110q46 51 189 51q87 0 132 -15.5t67.5 -52t28 -94t5.5 -180.5q0 -44 -0.5 -70t-1.5 -57q0 -244 13.5 -383t53.5 -206t118 -67q68 0 106 68.5t53 209t15 368.5q0 45 -0.5 75.5t-1.5 67.5v41q0 127 7 182.5t34.5 84t89.5 28.5 q86 0 114 -51q17 -28 24 -161t7 -421q0 -391 -135.5 -587.5t-403.5 -196.5q-160 0 -267.5 37t-173.5 115.5t-95 202.5t-29 300z" />
<glyph unicode="V" horiz-adv-x="1075" d="M-37 1145q0 42 64 106q69 71 138 110.5t116 39.5q72 0 126 -60.5t103 -187.5l166 -434l188 596q8 26 37.5 43.5t69.5 17.5q48 0 81 -31t33 -71q0 -11 -4 -27l-387 -1167q-33 -107 -145 -107q-41 0 -79 31t-62 88l-439 1024q-6 15 -6 29z" />
<glyph unicode="W" horiz-adv-x="1571" d="M-29 1153q0 34 28 67t97 91q109 92 193 92q63 0 110 -60t90 -186l168 -477l146 463q59 188 145 188q49 0 88.5 -51.5t61.5 -151.5l100 -446l174 627q20 67 98 67q55 0 87 -28t32 -72q0 -21 -4 -31l-325 -1116q-13 -43 -42 -79.5t-64.5 -56.5t-74.5 -20q-37 0 -69.5 17 t-56.5 46.5t-31 63.5l-101 449l-135 -430q-19 -63 -67.5 -104.5t-100.5 -41.5q-51 0 -100 42t-76 114l-365 985q-6 18 -6 39z" />
<glyph unicode="X" horiz-adv-x="1141" d="M55 86q0 19 6 31l246 569l-227 442q-8 15 -8 33q0 33 39 72q78 83 153.5 126.5t134.5 43.5q73 0 129 -58t111 -184l119 -268l137 436q7 27 35 44.5t63 17.5q55 0 91 -29.5t36 -71.5q0 -18 -6 -30l-252 -562l228 -440q8 -13 8 -31q0 -38 -99 -125q-133 -116 -237 -116 q-140 0 -236 223l-120 276l-125 -438q-8 -28 -36 -44.5t-67 -16.5q-50 0 -86.5 30.5t-36.5 69.5z" />
<glyph unicode="Y" horiz-adv-x="1075" d="M-25 1147q0 32 44 81t122 99q98 62 176 62q74 0 119.5 -56.5t98.5 -191.5l159 -410l191 582q8 23 37 42t63 19q115 0 115 -123q0 -67 -31.5 -153t-122.5 -300.5t-141 -353.5q-3 -113 -7 -218t-22 -152.5t-65 -68.5t-146 -21q-87 0 -133.5 19t-64.5 61.5t-21 90.5t-10 230 q-125 233 -204.5 390t-118 246.5t-38.5 125.5z" />
<glyph unicode="Z" horiz-adv-x="893" d="M29 59q0 17 4 25l375 1032q4 12 4 17q0 18 -25 41q-93 0 -170 -8.5t-76 -8.5q-80 0 -80 92q0 150 525 150q346 0 346 -195q0 -34 -12 -67l-316 -869q-4 -12 -4 -20q0 -43 74 -43q36 0 98 12t88 12q88 0 88 -86q0 -159 -659 -159q-134 0 -197 17.5t-63 57.5z" />
<glyph unicode="[" horiz-adv-x="834" d="M145 -446v1908q0 52 33.5 80.5t95.5 28.5q127 0 340 -98q35 -16 67.5 -31t51.5 -27t29 -28t10 -39q0 -25 -17 -44.5t-38 -19.5h-205q-41 0 -41 -43v-1466q0 -43 41 -43h205q13 0 26 -8.5t21 -23.5t8 -32q0 -40 -25.5 -57t-134.5 -68q-213 -98 -338 -98q-62 0 -95.5 28 t-33.5 81z" />
<glyph unicode="\" horiz-adv-x="989" d="M-37 1436q0 29 20 50t50 21q45 0 98 -75t145 -259.5t189 -381.5q99 -196 234 -471t193.5 -399.5t97 -221.5t38.5 -129q0 -30 -19 -51t-46 -21q-36 0 -77.5 47.5t-97 149.5t-154.5 304t-134 271q-190 379 -304.5 615t-173.5 374t-59 177z" />
<glyph unicode="]" horiz-adv-x="813" d="M31 -330q0 25 17.5 43.5t37.5 18.5h205q41 0 41 43v1466q0 43 -41 43h-205q-20 0 -37.5 18.5t-17.5 43.5q0 41 30.5 61.5t124.5 62.5q220 101 342 101q61 0 95 -28.5t34 -80.5v-1908q0 -52 -33.5 -80.5t-95.5 -28.5q-124 0 -342 100q-98 46 -126.5 65t-28.5 60z" />
<glyph unicode="^" horiz-adv-x="1282" d="M66 489q0 309 125 459t384 150q113 0 199.5 -31t132 -81.5t45.5 -108.5q0 -63 -51.5 -112.5t-116.5 -49.5q-77 0 -121.5 56.5t-44.5 156.5q0 33 3 51q-47 -38 -84 -142t-37 -214q0 -57 36.5 -79t116.5 -22q154 0 235 16t128 66q3 3 20.5 29t34.5 38.5t45 12.5 q29 0 39 -16t10 -58q0 -32 6.5 -49.5t28.5 -30.5q9 -5 41 -5t50 -8t18 -36q0 -27 -36 -46t-91 -19h-37q-38 0 -53 -39q-49 -132 -79 -199.5t-81 -132.5q-185 -238 -420 -238q-220 0 -333 172.5t-113 509.5zM500 227q0 -90 43 -165.5t88 -75.5q71 0 150.5 107t146.5 310h-43 q-197 0 -291 -42t-94 -134z" />
<glyph unicode="_" d="M0 -244h1024v-239h-1024v239z" />
<glyph unicode="`" d="M254 1448q0 34 33.5 58t89.5 24q62 0 104 -16t54 -41l159 -312q6 -12 6 -26q0 -21 -14.5 -36.5t-38.5 -15.5q-45 0 -115 68l-266 264q-12 12 -12 33z" />
<glyph unicode="a" horiz-adv-x="958" d="M39 717q0 54 32.5 102.5t92.5 86.5t146.5 59.5t189.5 21.5q207 0 301 -127t94 -399q0 -157 -16 -253.5t-41 -127.5q-35 -41 -140 -68.5t-258 -27.5q-120 0 -207 34t-131.5 98.5t-44.5 155.5q0 85 46.5 153t138 118t227.5 82q-3 173 -57 258q-22 -141 -85 -218t-151 -77 q-59 0 -98 35.5t-39 93.5zM205 274q0 -73 39 -119t96 -46q55 0 94 46t39 119q0 75 -39 121.5t-94 46.5q-38 0 -68.5 -21t-48.5 -60.5t-18 -86.5z" />
<glyph unicode="b" horiz-adv-x="997" d="M66 666q0 305 17.5 507.5t39.5 264.5q25 71 141 71q75 0 114.5 -28t41.5 -84l12 -471q91 63 203 63q107 0 178 -41.5t106 -125.5t35 -214q0 -135 -35 -250t-98 -198.5t-146 -128.5t-177 -45q-150 0 -245.5 73t-141 223.5t-45.5 383.5zM362 301q0 -89 49.5 -148t116.5 -59 q44 0 82.5 27t61 75.5t22.5 104.5t-22.5 104.5t-60.5 75.5t-83 27t-83 -27t-60.5 -74t-22.5 -106z" />
<glyph unicode="c" horiz-adv-x="864" d="M41 471q0 123 29 217.5t86 162.5t138 102t183 34q112 0 193 -31.5t124.5 -87.5t43.5 -127q0 -77 -43 -122.5t-113 -45.5q-156 0 -162 265q-43 -56 -59.5 -134t-16.5 -200q0 -96 22.5 -164.5t63.5 -102.5t101 -34q29 0 82.5 19.5t74.5 19.5q56 0 56 -52q0 -46 -49 -94 t-135.5 -80t-196.5 -32q-98 0 -175 32.5t-133.5 96.5t-85 154.5t-28.5 203.5z" />
<glyph unicode="d" horiz-adv-x="969" d="M45 444q0 403 487 533v422q0 50 39.5 81t106.5 31q117 0 149 -71q15 -31 31 -105.5t28 -175t20.5 -241.5t8.5 -318q0 -131 -8.5 -248t-21.5 -184.5t-25 -85.5q-9 -16 -58 -39t-125.5 -40t-162.5 -17q-151 0 -256 53t-159 155.5t-54 249.5zM360 623q0 -89 49.5 -148 t116.5 -59q45 0 83 27t60.5 74t22.5 106q0 60 -22.5 106t-60 73t-83.5 27q-45 0 -83 -27t-60.5 -73t-22.5 -106z" />
<glyph unicode="e" horiz-adv-x="901" d="M43 465q0 166 52.5 283t154.5 178t244 61q185 0 286 -71t101 -201q0 -131 -99.5 -219t-253.5 -88q-37 0 -73 6q13 -102 60.5 -156.5t119.5 -54.5q34 0 87 20.5t75 20.5t36.5 -13.5t14.5 -35.5q0 -46 -52 -95.5t-143 -82.5t-202 -33q-122 0 -214.5 58.5t-143 169 t-50.5 253.5zM465 707q0 -71 39.5 -119.5t93.5 -48.5q57 0 96 47.5t39 120.5t-39 119t-96 46q-53 0 -93 -47t-40 -118z" />
<glyph unicode="f" horiz-adv-x="668" d="M-106 844q0 30 61 45l151 37q23 5 36 30t30 82t39 113q45 113 112 195.5t145.5 123.5t162.5 41q103 0 167 -58t64 -148q0 -56 -22.5 -104.5t-60.5 -75.5t-83 -27q-73 0 -119 56t-47 151q-16 -36 -23 -83.5t-7 -99.5v-112q0 -36 21 -54.5t67 -29.5l151 -37q62 -15 62 -45 q0 -17 -17 -31.5t-41 -17.5l-151 -23q-92 -12 -92 -90v-586q0 -53 -47 -82.5t-138 -29.5q-86 0 -133 30t-47 82v586q0 69 -94 90l-90 21q-25 6 -41 21t-16 30z" />
<glyph unicode="g" horiz-adv-x="1038" d="M45 455q0 151 68.5 273t189 190.5t266.5 68.5q108 0 190 -27t109 -65q15 -18 35.5 -93t35.5 -194.5t15 -271.5q0 -415 -115 -626.5t-339 -211.5q-129 0 -212 73.5t-83 182.5q0 59 25 105t72 71t108 25q180 0 227 -281q82 112 88 346q-114 -24 -229 -24 q-103 0 -188.5 31.5t-144 91.5t-88.5 145t-30 191zM360 633q0 -89 49.5 -148t116.5 -59q45 0 83 27t60.5 74t22.5 106t-22.5 106t-60 74t-83.5 27q-45 0 -83 -27t-60.5 -74t-22.5 -106z" />
<glyph unicode="h" horiz-adv-x="1114" d="M88 633q0 322 10.5 504.5t38.5 259.5q25 64 61.5 88t106.5 24q84 0 127 -28t43 -84v-520q122 73 254 73q161 0 239.5 -107.5t78.5 -328.5q0 -204 -14.5 -315t-59 -163t-131.5 -52q-78 0 -114.5 19t-47 59t-10.5 122v135q0 209 -26.5 323t-68.5 114q-39 0 -67.5 -89 t-28.5 -245q0 -26 2 -70t2 -63q0 -97 -5.5 -151t-24.5 -89.5t-56 -50t-100 -14.5q-67 0 -104 24t-64 88q-14 37 -27.5 180t-13.5 357z" />
<glyph unicode="i" horiz-adv-x="537" d="M86 96v760q0 47 46.5 73.5t135.5 26.5q91 0 138 -26t47 -74v-760q0 -53 -47 -82.5t-138 -29.5q-86 0 -134 30t-48 82zM102 1251q0 59 22.5 106t60 74t83.5 27q42 0 81.5 -27.5t62 -75t22.5 -104.5q0 -56 -22.5 -104.5t-60.5 -75.5t-83 -27q-67 0 -116.5 59t-49.5 148z " />
<glyph unicode="j" horiz-adv-x="545" d="M-152 -258q0 27 16.5 35.5t55 13t60.5 12.5q47 20 70.5 67.5t30.5 121.5t7 203v661q0 48 43.5 74t124.5 26q203 0 203 -100v-500q0 -196 -19 -327.5t-64 -221.5t-120 -133t-186 -43q-96 0 -159 34.5t-63 76.5zM102 1251q0 59 22.5 106t60 74t83.5 27q42 0 81.5 -27.5 t62 -75t22.5 -104.5q0 -56 -22.5 -104.5t-60.5 -75.5t-83 -27q-67 0 -116.5 59t-49.5 148z" />
<glyph unicode="k" horiz-adv-x="971" d="M86 623q0 28 2 102t2 119q0 51 -0.5 82.5t-1.5 68.5q0 193 14 299t56 155.5t125 49.5q84 0 128 -29.5t44 -83.5v-780q39 172 118 257t195 85q54 0 95.5 -26.5t64 -73.5t22.5 -107q0 -57 -22.5 -104.5t-60.5 -74.5t-83 -27q-67 0 -109 51t-54 147q-29 -43 -29 -98 q0 -82 45 -143.5t147 -147.5l191 -160q-60 -103 -109.5 -148.5t-107.5 -45.5q-31 0 -66 13.5t-69 38.5t-74 67l-205 210v-241q0 -94 -113 -94q-90 0 -112 57q-19 51 -26 191t-7 391z" />
<glyph unicode="l" horiz-adv-x="625" d="M80 674v735q0 100 194 100q193 0 193 -98v-864q0 -173 14.5 -260t59.5 -121q20 -15 60.5 -21.5t56.5 -13.5t16 -37q0 -39 -57 -74.5t-152 -35.5q-166 0 -248.5 69.5t-109.5 212t-27 408.5z" />
<glyph unicode="m" horiz-adv-x="1536" d="M90 760q0 83 12 132.5t45.5 72t100.5 22.5q65 0 99.5 -27.5t53.5 -93.5q131 101 283 101q137 0 229 -105q128 96 271 96q100 0 162 -49t92 -150.5t30 -258.5q0 -160 -7 -250.5t-25.5 -150t-54.5 -87.5t-97 -28q-72 0 -106 21t-42 63.5t-8 128.5q0 178 -8.5 306t-27 190.5 t-48.5 62.5q-37 0 -61.5 -89.5t-24.5 -244.5q1 -36 2 -78.5t1 -67.5q0 -101 -4.5 -149t-21.5 -81t-52 -47.5t-99 -14.5q-84 0 -121.5 26.5t-48 85.5t-10.5 187q0 28 2 84t2 86q0 141 -21.5 222t-54.5 81q-38 0 -63 -93.5t-25 -261.5q1 -26 1.5 -48t0.5 -64q0 -130 -9.5 -190 t-43.5 -87.5t-112 -27.5q-61 0 -94.5 25t-57.5 87q-8 26 -17 105.5t-15.5 233t-6.5 325.5z" />
<glyph unicode="n" horiz-adv-x="1118" d="M88 641v135q0 77 17 122.5t56 67t103 21.5q164 0 170 -113q157 84 301 84q160 0 238 -108.5t78 -329.5q0 -206 -14 -319t-58.5 -165t-132.5 -52q-78 0 -114.5 19t-47 59t-10.5 122q1 45 1.5 78.5t0.5 56.5q0 205 -27 321t-69 116t-69.5 -89.5t-27.5 -246.5 q1 -33 1.5 -61.5t0.5 -73.5q0 -125 -12 -186t-50.5 -88t-121.5 -27q-67 0 -104 24t-64 88q-13 35 -29 181.5t-16 363.5z" />
<glyph unicode="o" horiz-adv-x="940" d="M43 487q0 114 30 209.5t86 160.5t133.5 98.5t176.5 33.5q131 0 227.5 -58.5t148.5 -171t52 -267.5q0 -159 -51 -273.5t-147 -173.5t-230 -59q-128 0 -225 59.5t-149 172.5t-52 269zM444 530q0 -98 46 -161.5t106 -63.5q62 0 108 62.5t46 162.5q0 65 -21 116t-57 79.5 t-76 28.5t-75.5 -28t-56 -80t-20.5 -116z" />
<glyph unicode="p" horiz-adv-x="999" d="M80 299q0 254 15 402.5t48 189.5q31 37 127.5 66.5t229.5 29.5q107 0 191 -31t140.5 -89t87.5 -143.5t31 -195.5q0 -204 -123 -344t-364 -207v-368q0 -51 -39 -82t-107 -31q-96 0 -137 51q-15 22 -30.5 76.5t-33.5 162t-27 230.5t-9 283zM303 332q0 -89 49.5 -148 t116.5 -59q45 0 83 27t60.5 74t22.5 106t-22.5 106t-60 74t-83.5 27q-45 0 -83 -27t-60.5 -74t-22.5 -106z" />
<glyph unicode="q" horiz-adv-x="1020" d="M45 365q0 181 60.5 323t168 220.5t236.5 78.5q217 0 320.5 -167.5t103.5 -512.5q0 -190 -8.5 -359t-21.5 -271.5t-27 -139.5q-27 -72 -150 -72q-66 0 -105.5 31t-41.5 82l-13 469q-89 -63 -202 -63q-320 0 -320 381zM305 672q0 -89 49.5 -148t116.5 -59q44 0 82.5 27 t61 75.5t22.5 104.5t-22.5 104.5t-60.5 75.5t-83 27t-83 -27t-60.5 -74t-22.5 -106z" />
<glyph unicode="r" horiz-adv-x="840" d="M82 680v80q0 85 16 133t60.5 71t130.5 23q88 0 133 -29t45 -84v-81q47 91 109.5 136.5t138.5 45.5q51 0 91 -26t62.5 -73.5t22.5 -107.5q0 -59 -22.5 -106t-60 -74t-83.5 -27q-73 0 -119 56t-47 151q-30 -61 -44.5 -132.5t-21.5 -167.5t-13.5 -200.5t-14.5 -171.5 q-6 -59 -47.5 -85.5t-122.5 -26.5q-67 0 -104 24t-64 88q-14 35 -29.5 197.5t-15.5 386.5z" />
<glyph unicode="s" horiz-adv-x="856" d="M35 205q0 61 39 97t106 36q89 0 146 -68t67 -194q74 51 74 123q0 58 -37 93.5t-131 86.5q-70 38 -113.5 69t-76 69t-48.5 85.5t-16 102.5q0 87 43.5 151.5t127.5 97.5t206 33q183 0 288 -62t105 -159q0 -61 -39 -97t-106 -36q-169 0 -197 262q-67 -47 -67 -125 q0 -57 29 -89.5t106 -76.5q139 -82 180.5 -110.5t77 -83.5t35.5 -134q0 -130 -118 -211t-319 -81q-110 0 -192 29.5t-126 80.5t-44 111z" />
<glyph unicode="t" horiz-adv-x="733" d="M-20 823q0 31 47.5 98t138.5 152q186 174 274 174q52 0 81.5 -35.5t29.5 -99.5v-117q0 -62 88 -84l80 -18q32 -7 47.5 -18t15.5 -31q0 -18 -16.5 -35t-42.5 -21l-129 -18q-94 -12 -94 -90v-133q0 -191 19 -276.5t89 -114.5q19 -8 57.5 -12t56 -13t17.5 -37 q0 -43 -61.5 -76.5t-165.5 -33.5q-126 0 -202.5 36t-115.5 114t-52 199t-13 314v74q0 25 -27 31l-51 12q-39 8 -55 19.5t-16 39.5z" />
<glyph unicode="u" horiz-adv-x="1118" d="M68 428q0 216 13.5 326t57 163.5t133.5 53.5q94 0 133 -33t39 -111q0 -98 -0.5 -129.5t-1.5 -62.5q0 -204 27.5 -321t69.5 -117q41 0 68.5 90t27.5 248q0 23 -2 67t-2 66q0 98 6 151.5t25 87.5t54.5 49t100.5 15q67 0 105 -25.5t63 -87.5q7 -17 17.5 -89.5t19 -195.5 t8.5 -264v-82q0 -91 -14 -142.5t-51.5 -76t-110.5 -24.5q-164 0 -170 112q-48 -34 -97 -57.5t-99 -35t-105 -11.5q-159 0 -237 108.5t-78 327.5z" />
<glyph unicode="v" horiz-adv-x="797" d="M-70 813q0 35 105 109q94 65 168 65q113 0 186 -172l125 -291l152 402q7 19 28 32t47 13q27 0 52 -12t38 -31t13 -37q0 -10 -2 -14l-316 -826q-30 -74 -108 -74q-85 0 -125 82l-356 727q-7 13 -7 27z" />
<glyph unicode="w" horiz-adv-x="1098" d="M-70 813q0 26 25 50t76 55q110 69 178 69q93 0 153 -172l103 -291l96 283q47 133 107 133q39 0 67 -34t51 -109l88 -271l113 400q13 47 70 47q43 0 71.5 -24.5t28.5 -55.5q0 -10 -2 -14l-248 -797q-14 -45 -50.5 -73.5t-80.5 -28.5q-43 0 -82 32t-53 78l-70 232l-92 -254 q-13 -40 -48 -65.5t-75 -25.5t-75 29t-58 82l-286 698q-7 15 -7 27z" />
<glyph unicode="x" horiz-adv-x="883" d="M37 57q0 11 4 19l182 393l-176 319q-6 10 -6 21q0 15 15.5 37.5t45.5 46.5q60 47 123 71.5t101 24.5q51 0 91.5 -40t82.5 -128l80 -172l94 299q11 35 67 35q44 0 74.5 -20.5t30.5 -49.5q0 -10 -4 -18l-185 -387l174 -318q7 -11 7 -22q0 -14 -17 -35.5t-49 -46.5 q-60 -47 -121.5 -72.5t-99.5 -25.5q-51 0 -90 39t-78 123l-82 178l-92 -303q-10 -35 -66 -35q-47 0 -76.5 19t-29.5 48z" />
<glyph unicode="y" horiz-adv-x="903" d="M-145 -246q0 90 56.5 145.5t147.5 55.5q181 0 228 -281q70 121 106 252l-418 852q-6 12 -6 27q0 36 103 106q101 68 170 68q59 0 101.5 -41.5t84.5 -130.5l154 -320l123 433q11 43 73 43q47 0 76 -21.5t29 -54.5q0 -5 -4 -21l-277 -837q-62 -185 -124.5 -300t-146.5 -173 t-198 -58q-116 0 -197 75t-81 181z" />
<glyph unicode="z" horiz-adv-x="721" d="M8 45q0 2 4 14l293 723q2 4 2 13q0 32 -57 32q-28 0 -72 -7t-57 -7q-39 0 -58.5 15t-19.5 49q0 40 40.5 64.5t122.5 35t212 10.5q148 0 224.5 -40.5t76.5 -112.5q0 -21 -6 -39l-240 -605q-2 -4 -2 -14q0 -33 59 -33q18 0 69 7.5t69 7.5q82 0 82 -60q0 -41 -53.5 -66.5 t-160 -36.5t-282.5 -11q-246 0 -246 61z" />
<glyph unicode="{" horiz-adv-x="786" d="M-170 512q0 35 70 35q10 0 16.5 -0.5t13.5 -1.5q91 0 148 86t57 243q0 62 -0.5 98t-1.5 79q0 168 36.5 289.5t101.5 185t145 63.5q129 0 233 -133q40 -51 62 -108.5t22 -98.5q0 -63 -47 -63q-14 0 -58 23.5t-75 23.5q-92 0 -123 -168q-4 -23 -11 -80t-9 -67 q-15 -68 -35 -125t-74 -140q-64 -95 -195 -141q133 -49 195 -141q52 -78 72.5 -136t36.5 -129q2 -10 9 -67t11 -80q31 -168 123 -168q18 0 34.5 6t38.5 17.5t35.5 17.5t24.5 6q47 0 47 -63q0 -40 -22 -98t-62 -109q-101 -133 -233 -133q-80 0 -145 63.5t-101.5 185 t-36.5 289.5q1 36 1.5 65t0.5 71q0 123 -19.5 192t-86.5 127q-19 17 -49.5 27.5t-67.5 17.5t-70 16q-12 6 -12 23z" />
<glyph unicode="|" horiz-adv-x="909" d="M66 543q0 115 51.5 211.5t140 152.5t191.5 56q123 0 241 -95q-43 164 -43 226q0 65 28 100t79 35t82.5 -40t31.5 -104q0 -37 -25 -113.5t-75 -197.5q63 -111 63 -231q0 -116 -49 -206t-155 -165q126 -21 195 -93.5t69 -182.5q0 -52 -23 -106t-67 -103 q-53 -58 -118 -100.5t-136.5 -64.5t-147.5 -22q-96 0 -170 33t-115.5 91t-41.5 124q0 82 40 126t115 44q55 0 97 -36.5t68 -108.5t30 -170q61 40 93 95.5t32 119.5q0 144 -162 198q-39 13 -73.5 17.5t-92.5 8.5t-88 7q-49 6 -49 45q0 16 10.5 27t32 19t57 15.5t82.5 18.5 q-51 39 -89.5 81.5t-61.5 85.5t-35 94t-12 108zM389 578q0 -89 49.5 -148t116.5 -59q44 0 82.5 27t61 75.5t22.5 104.5t-23 104t-62 75t-81 27q-45 0 -83 -27t-60.5 -73t-22.5 -106z" />
<glyph unicode="}" horiz-adv-x="786" d="M53 -225q0 63 47 63q11 0 29.5 -9t30.5 -14.5t34 -14.5t39 -9q89 0 121 168q8 40 13 78t10 69q17 73 38 131.5t70 133.5q61 91 195 141q-134 47 -195 141q-24 38 -45 79t-32.5 75t-18.5 61t-12 50q-5 31 -10 69t-13 78q-32 168 -121 168q-29 0 -74 -23.5t-59 -23.5 q-47 0 -47 63q0 40 23 98.5t61 108.5q106 133 234 133q81 0 145 -63.5t100.5 -185t36.5 -289.5q0 -57 -0.5 -86t-1.5 -62q0 -174 54.5 -265t152.5 -91h29q69 0 69 -35q0 -43 -79 -43h-13q-97 0 -155 -89.5t-58 -262.5q1 -33 1.5 -62t0.5 -82q0 -168 -36.5 -289.5 t-100.5 -185t-145 -63.5q-131 0 -234 133q-38 52 -61 109t-23 98z" />
<glyph unicode="~" horiz-adv-x="883" d="M37 57q0 7 4 19l164 428l-158 284q-6 10 -6 21q0 15 15.5 37.5t45.5 46.5q60 47 123 71.5t101 24.5q101 0 174 -168l94 -213l80 340q3 13 22 24t45 11q46 0 74.5 -21t28.5 -51q0 -10 -2 -16l-152 -444l141 -261q7 -11 7 -22q0 -30 -64 -82q-60 -47 -122.5 -72.5 t-100.5 -25.5q-51 0 -91 39.5t-77 122.5l-94 215l-80 -340q-3 -15 -21 -25t-45 -10q-48 0 -77 19.5t-29 47.5z" />
<glyph unicode="&#xa1;" horiz-adv-x="618" d="M96 -39q0 262 50.5 385t164.5 123q75 0 122.5 -53t70 -159.5t22.5 -272.5q0 -28 -2 -88t-2 -93v-53q0 -88 -5.5 -136.5t-26 -75t-64 -37.5t-119.5 -11q-98 0 -140.5 20.5t-55.5 73t-13 168.5v53q0 62 -0.5 92t-1.5 64zM119 723q0 81 55.5 136.5t136.5 55.5q83 0 138 -56 t55 -136q0 -83 -55 -139t-138 -56q-82 0 -137 56t-55 139z" />
<glyph unicode="&#xa2;" horiz-adv-x="948" d="M72 594q0 141 32 244t100.5 171t184.5 113v97q0 96 109 96q104 0 104 -96v-95q130 -19 196 -79t66 -154q0 -81 -38.5 -126.5t-108.5 -45.5q-167 0 -170 264q-45 -56 -60.5 -133.5t-15.5 -200.5q0 -144 49 -222.5t137 -78.5q28 0 82.5 19.5t75.5 19.5q55 0 55 -51 q0 -37 -31 -75.5t-93 -71.5t-146 -50v-96q0 -96 -102 -96q-109 0 -109 96v94q-317 65 -317 457z" />
<glyph unicode="&#xa3;" horiz-adv-x="1073" d="M27 602q0 37 67 62l80 30q23 7 39 27q23 31 43.5 91.5t41 124.5t50.5 114q132 221 397 221q78 0 140 -28.5t95.5 -78t33.5 -106.5q0 -72 -42.5 -113t-117.5 -41q-72 0 -121.5 58.5t-70.5 173.5q-58 -207 -58 -351q0 -60 22.5 -81.5t82.5 -32.5l168 -31q29 -6 48 -24 t19 -37q0 -18 -19.5 -37.5t-43.5 -22.5l-168 -18q-58 -6 -81.5 -30t-23.5 -81q0 -197 54 -217q19 -7 54 -11t85.5 -5t103 -4t76 -16t23.5 -44q0 -53 -134.5 -83.5t-392.5 -30.5q-274 0 -274 176v8l8 280q0 22 -49 50l-72 41q-63 35 -63 67z" />
<glyph unicode="&#xa4;" horiz-adv-x="1241" d="M61 444l201 203q-72 107 -72 238q0 134 72 237l-201 205l117 117l203 -201q107 74 240 74q139 0 243 -74l201 201l119 -117l-201 -205q70 -106 70 -237t-70 -238l201 -203l-119 -118l-201 202q-102 -73 -241 -73q-136 0 -242 73l-203 -202zM362 885q0 -71 35 -131 t94.5 -94.5t131.5 -34.5q69 0 129 34.5t95.5 94.5t35.5 131q0 68 -35.5 129t-95 96t-129.5 35q-72 0 -131 -35t-94.5 -96t-35.5 -129z" />
<glyph unicode="&#xa5;" horiz-adv-x="1047" d="M-8 1096q0 30 18 51q49 61 114.5 94t127.5 33q73 0 122 -76t82 -229.5t58 -401.5q22 188 44.5 318t54 217t72.5 129.5t95 42.5q41 0 93.5 -20.5t103.5 -59.5q63 -51 63 -98q0 -16 -6 -31l-266 -619l143 -10q35 -3 56.5 -23.5t21.5 -50.5q0 -29 -17.5 -48.5t-41.5 -20.5 l-207 -12v-187q-9 -60 -58.5 -85t-150.5 -25q-96 0 -145.5 26t-59.5 84v187l-207 12q-25 2 -42 21t-17 48q0 30 21 50.5t57 23.5l143 10l-266 619q-6 15 -6 31z" />
<glyph unicode="&#xa6;" d="M393 -350v758h240v-758h-240zM393 674v758h240v-758h-240z" />
<glyph unicode="&#xa7;" horiz-adv-x="1360" d="M57 -289q0 69 24 119t69.5 76t107.5 26q89 0 153.5 -44t100 -131t41.5 -214q98 81 98 183q0 54 -23 93t-62.5 68.5t-123.5 81.5q-127 75 -201 142t-113.5 154.5t-39.5 207.5q0 70 18 129.5t55 108.5t99 96q-84 136 -84 291q0 97 34 175t102 133.5t164 83.5t216 28 q169 0 290.5 -36.5t185 -102t63.5 -152.5q0 -66 -22.5 -117.5t-64.5 -78.5t-102 -27q-120 0 -186 91.5t-84 284.5q-72 -98 -72 -194q0 -89 52 -143.5t180 -131.5q173 -103 252.5 -202t79.5 -244q0 -207 -205 -336q63 -66 91 -133.5t28 -153.5q0 -94 -42.5 -172.5t-122 -137 t-192.5 -90.5t-248 -32q-164 0 -280.5 36.5t-176 104.5t-59.5 160zM342 643q0 -40 21 -70.5t69 -64.5l477 -324q74 41 74 107q0 75 -88 135l-492 324q-61 -41 -61 -107z" />
<glyph unicode="&#xa8;" d="M190 1298q0 61 43.5 104.5t102.5 43.5q40 0 73.5 -19.5t52.5 -53t19 -75.5q0 -59 -42 -101t-103 -42q-60 0 -103 42t-43 101zM547 1298q0 62 42 105t103 43q40 0 74 -20t53 -53t19 -75q0 -59 -42 -101t-104 -42q-61 0 -103 42t-42 101z" />
<glyph unicode="&#xa9;" horiz-adv-x="1706" d="M119 698q0 302 219 523q213 213 514 213q309 0 524 -215q103 -104 157 -235.5t54 -285.5q0 -305 -211 -516q-106 -106 -240 -162.5t-284 -56.5q-299 0 -516 217q-217 219 -217 518zM207 698q0 -264 190 -454q191 -191 455 -191q132 0 249 49t214 144q186 186 186 452 q0 67 -12.5 128.5t-35 118.5t-59.5 113.5t-81 98.5q-189 189 -461 189q-266 0 -453 -187q-64 -64 -106 -137t-64 -154t-22 -170zM465 694q0 105 28 190.5t79.5 144.5t125.5 90.5t162 31.5q136 0 217.5 -65.5t116.5 -200.5h-129q-27 83 -75.5 123.5t-125.5 40.5 q-80 0 -138 -40t-88 -119t-30 -194q0 -162 69 -253t187 -91q79 0 131.5 45.5t79.5 137.5h129q-34 -145 -121.5 -216t-232.5 -71q-114 0 -202.5 53.5t-135.5 155.5t-47 237z" />
<glyph unicode="&#xaa;" horiz-adv-x="934" d="M137 1311q0 52 42.5 99t122 75t181.5 28q156 0 226.5 -95.5t70.5 -299.5q0 -205 -39 -299q-157 -59 -303 -59q-134 0 -210 58t-76 159q0 64 34.5 115.5t103.5 88.5t171 60v14q0 98 -43 181q-17 -106 -64.5 -164t-113.5 -58q-45 0 -74 28t-29 69zM262 967 q0 -52 30.5 -87.5t69.5 -35.5q40 0 70.5 35.5t30.5 87.5q0 54 -30 90.5t-71 36.5q-40 0 -70 -36.5t-30 -90.5z" />
<glyph unicode="&#xab;" horiz-adv-x="1346" d="M104 494q0 113 189 235q118 79 225 117.5t164 38.5q76 0 76 -45q0 -44 -82.5 -130.5t-247.5 -215.5q167 -133 247.5 -218t80.5 -131q0 -45 -76 -45q-56 0 -165 41t-222 115q-189 125 -189 238zM610 494q0 113 189 235q118 79 225 117.5t164 38.5q76 0 76 -45 q0 -44 -82.5 -130.5t-247.5 -215.5q167 -133 247.5 -218t80.5 -131q0 -45 -76 -45q-56 0 -165 41t-222 115q-189 125 -189 238z" />
<glyph unicode="&#xac;" horiz-adv-x="1706" d="M254 639v227h1198v-501h-229v274h-969z" />
<glyph unicode="&#xad;" horiz-adv-x="696" d="M76 496q0 55 11.5 79.5t42 31.5t101.5 7h103q31 0 49.5 -0.5t40.5 -1.5h47q60 0 85.5 -7.5t34.5 -31.5t9 -79q0 -56 -10.5 -79t-37.5 -29.5t-89 -6.5h-37q-28 0 -48 -0.5t-46 -1.5q-23 1 -43.5 1.5t-63.5 0.5q-73 0 -100.5 6t-38 29t-10.5 82z" />
<glyph unicode="&#xae;" horiz-adv-x="776" d="M72 1094q0 81 43 153t116 114t156 42q69 0 128 -25t100 -66t65.5 -99t24.5 -126q0 -62 -24.5 -120t-70 -102t-103 -68.5t-126.5 -24.5q-83 0 -154 42t-113 115.5t-42 164.5zM121 1087q0 -112 78 -191t188 -79q74 0 136.5 36.5t98 98t35.5 135.5t-35 135.5t-97.5 96.5 t-137.5 35q-71 0 -133 -34.5t-97.5 -96t-35.5 -136.5zM264 915v342h121q145 0 145 -100q0 -64 -73 -90l75 -152h-81l-66 142h-49v-142h-72zM336 1104h49q68 0 68 49t-72 49h-45v-98z" />
<glyph unicode="&#xaf;" d="M199 1303q0 62 30 79t125 17q32 0 50 -0.5t38 -1.5q17 1 31.5 1.5t38.5 0.5q16 0 47 -2t47 -2q13 0 47 2t54 2q75 0 101 -20t26 -79q0 -44 -14 -63t-47.5 -25t-100.5 -6q-25 1 -45.5 1.5t-44.5 0.5q-23 0 -38 -0.5t-34 -1.5q-22 1 -41 1.5t-51 0.5q-26 0 -44 -0.5 t-40 -1.5q-80 0 -107.5 19.5t-27.5 77.5z" />
<glyph unicode="&#xb0;" horiz-adv-x="612" d="M70 1288q0 97 65.5 163.5t163.5 66.5q64 0 116.5 -31t82.5 -83t30 -116q0 -97 -66 -163t-163 -66t-163 66t-66 163zM133 1288q0 -69 48.5 -117.5t117.5 -48.5t117.5 48.5t48.5 117.5q0 36 -12.5 65.5t-35.5 52.5t-52.5 35.5t-65.5 12.5q-70 0 -118 -47t-48 -119z" />
<glyph unicode="&#xb1;" horiz-adv-x="1706" d="M254 -18v231h1198v-231h-1198zM254 690v232h481v319h238v-319h479v-232h-479v-319h-238v319h-481z" />
<glyph unicode="&#xb2;" horiz-adv-x="684" d="M18 1085q0 55 37 99.5t107 69t162 24.5q132 0 207 -58.5t75 -158.5q0 -78 -47 -189q-7 -19 -23 -46.5t-46.5 -80.5t-55.5 -96q-6 -10 -6 -28t21 -21l186 -8q12 -2 21.5 -13t9.5 -26q0 -16 -15 -28t-37 -15q-100 -14 -442 -14q-36 0 -72.5 2.5t-52.5 9.5t-16 20 q0 15 17 41t49 68t79 104q146 193 146 322q0 88 -70 141q2 -14 2 -39q0 -59 -17 -101.5t-46.5 -64.5t-69.5 -22q-48 0 -75.5 29.5t-27.5 78.5z" />
<glyph unicode="&#xb3;" horiz-adv-x="657" d="M-4 668q0 49 30.5 77.5t77.5 28.5q38 0 68.5 -22t48 -64.5t17.5 -101.5v-17q108 49 108 144q0 102 -162 127l-63 10q-26 3 -29 24q3 15 18 22t47 14.5t58 19.5q50 20 73 54t23 85q0 72 -51 135v-14q0 -56 -20.5 -101.5t-54.5 -69.5t-74 -24q-44 0 -69.5 25.5t-25.5 71.5 q0 50 38.5 92.5t108.5 68t161 25.5q77 0 134 -24t87 -67.5t30 -99.5q0 -109 -135 -159q181 -41 181 -197q0 -70 -45 -123.5t-129.5 -82.5t-194.5 -29q-114 0 -185 50.5t-71 121.5z" />
<glyph unicode="&#xb4;" d="M326 1130q0 15 6 27l160 311q12 26 53.5 42t103.5 16q55 0 89 -23.5t34 -56.5q0 -23 -12 -35l-266 -264q-68 -68 -115 -68q-25 0 -39 15t-14 36z" />
<glyph unicode="&#xb5;" horiz-adv-x="1315" d="M-45 -428l238 1518h358l-80 -529q-12 -82 -12 -143q0 -170 143 -170q89 0 139.5 69.5t73.5 219.5l88 553h357l-175 -1090h-321l18 125q-27 -50 -56.5 -80.5t-67.5 -45.5t-85 -15q-122 0 -184 120l-82 -532h-352z" />
<glyph unicode="&#xb6;" horiz-adv-x="1331" d="M70 907q0 61 17 123t49.5 117.5t80.5 105.5q75 78 167 114t212 36q150 0 227.5 -18t111.5 -68.5t34 -147.5v-6q2 90 10 136t33.5 68t77.5 22q90 0 108 -72q6 -26 10.5 -108t6.5 -231.5t2 -281.5q0 -317 -5 -466.5t-22 -184.5q-27 -53 -105 -53q-54 0 -78.5 28t-31 83 t-6.5 180v45q-6 -162 -12.5 -217t-33.5 -87t-89 -32q-111 0 -111 121v321q-64 -6 -121 -6q-151 0 -254 47q-86 41 -148 106t-96 150.5t-34 175.5zM897 754q0 -134 7 -217t22.5 -124.5t42.5 -41.5q28 0 44.5 42t23.5 124.5t7 216.5q0 188 -17.5 276t-57.5 88t-56 -89 t-16 -275z" />
<glyph unicode="&#xb8;" d="M293 -324q0 23 33 23q15 0 38.5 -9t30.5 -9q90 0 90 141q0 46 -10.5 73.5t-25.5 49t-15 28.5q0 19 15 33v33h102v-43q129 -46 129 -207q0 -97 -53 -149t-150 -52q-80 0 -132 28.5t-52 59.5z" />
<glyph unicode="&#xb9;" horiz-adv-x="471" d="M-37 1124q0 20 15 32.5t53 31.5q95 47 171 69.5t120 22.5q40 0 63 -17.5t23 -48.5l-2 -651q0 -67 -142 -67q-65 0 -102 18t-37 49v518q0 29 -21 29l-1.5 -0.5l-4.5 -1.5l-98 -23h-6q-11 0 -21 11t-10 28z" />
<glyph unicode="&#xba;" horiz-adv-x="899" d="M145 1135q0 115 39 200.5t112 130.5t169 45q99 0 171 -44.5t111 -129.5t39 -198q0 -119 -38 -205t-109.5 -131t-173.5 -45q-98 0 -170 44.5t-111 130.5t-39 202zM446 1167q0 -72 35 -121t80 -49q46 0 80.5 49t34.5 121q0 48 -16 86.5t-42 60t-57 21.5q-45 0 -80 -47 t-35 -121z" />
<glyph unicode="&#xbb;" horiz-adv-x="1350" d="M63 840q0 45 76 45q56 0 164 -39t225 -117q189 -125 189 -235q0 -54 -48 -115t-141 -123q-115 -77 -222 -116.5t-165 -39.5q-75 0 -75 45t80.5 130t246.5 219q-107 84 -181 150.5t-111.5 115t-37.5 80.5zM569 840q0 45 76 45q56 0 164 -39t225 -117q189 -125 189 -235 q0 -54 -48 -115t-141 -123q-115 -77 -222 -116.5t-165 -39.5q-76 0 -76 45q0 46 81 130.5t247 218.5q-330 259 -330 346z" />
<glyph unicode="&#xbc;" horiz-adv-x="1952" d="M-35 1135q0 18 14 29.5t50 29.5q87 42 161.5 64t116.5 22q38 0 60 -16.5t22 -44.5l-2 -609q0 -61 -135 -61q-131 0 -131 61v486q0 24 -21 24q-1 0 -2.5 -0.5t-3.5 -1.5l-94 -20h-6q-9 0 -19 10t-10 27zM506 -2q0 39 63.5 195.5t218.5 517.5q29 67 108.5 250.5t116.5 260 t65.5 116.5t51.5 40q20 0 32 -15t12 -40q0 -27 -38.5 -129t-109 -267.5t-184.5 -422.5q-74 -168 -135 -306.5t-95.5 -193.5t-64.5 -55q-18 0 -29.5 13.5t-11.5 35.5zM1290 233q0 42 21.5 130t68.5 202q30 68 43 93t30.5 40t41.5 15q35 0 83 -16.5t81 -43.5q12 -9 12 -28 t-8 -43l-66 -244q-4 -16 -4 -25q0 -21 14 -34t31 -13h56q18 0 18 15l-12 405q0 31 65 31q72 0 72 -31l-10 -403q0 -13 16 -13l72 -4q49 -3 49 -41q0 -17 -10 -28t-27 -11l-69 -4q-13 0 -13 -14l-8 -109q-3 -67 -139 -67q-127 0 -133 67l-6 113q0 7 -4.5 10.5t-10.5 3.5h-194 q-60 0 -60 47z" />
<glyph unicode="&#xbd;" horiz-adv-x="1927" d="M-35 1135q0 18 14 29.5t50 29.5q87 42 161.5 64t116.5 22q38 0 60 -16.5t22 -44.5l-2 -609q0 -61 -135 -61q-131 0 -131 61v486q0 24 -21 24q-1 0 -2.5 -0.5t-3.5 -1.5l-94 -20h-6q-9 0 -19 10t-10 27zM506 -2q0 39 63.5 195.5t218.5 517.5q29 67 108.5 250.5t116.5 260 t65.5 116.5t51.5 40q20 0 32 -15t12 -40q0 -27 -38.5 -129t-109 -267.5t-184.5 -422.5q-74 -168 -135 -306.5t-95.5 -193.5t-64.5 -55q-18 0 -29.5 13.5t-11.5 35.5zM1290 541q0 80 79 130t214 50q126 0 198 -55.5t72 -147.5q0 -69 -45 -176q-12 -28 -44.5 -82t-75.5 -127 q-7 -11 -7 -27q0 -15 21 -18l176 -8q12 0 21.5 -10t9.5 -25q0 -16 -13.5 -28t-35.5 -13q-96 -14 -422 -14q-68 0 -101.5 6.5t-33.5 23.5q0 14 14.5 36t50.5 68.5t74 94.5q139 180 139 301q0 80 -65 131v-37q0 -80 -34.5 -127t-90.5 -47q-44 0 -72.5 27.5t-28.5 73.5z" />
<glyph unicode="&#xbe;" horiz-adv-x="2130" d="M-4 707q0 30 13.5 53.5t36 35t54.5 11.5q57 0 92 -46.5t35 -129.5v-15q103 46 103 136q0 93 -154 116l-59 11q-26 3 -29 22q3 14 17 20t46 14t54 17q94 39 94 131q0 62 -51 125v-12q0 -80 -42 -131t-100 -51q-42 0 -66 24t-24 66q0 34 20.5 65.5t60.5 56.5t94.5 38.5 t117.5 13.5q111 0 175.5 -48t64.5 -130q0 -103 -129 -150q172 -36 172 -184q0 -49 -24 -89t-70 -68.5t-111.5 -44t-144.5 -15.5q-109 0 -177.5 46t-68.5 112zM684 -2q0 21 19 76.5t44 117.5t85 203.5t135 315.5q189 438 244.5 552.5t97.5 114.5q43 0 43 -55 q0 -27 -38.5 -129t-109 -267.5t-184.5 -422.5q-60 -136 -107 -244.5t-79.5 -175.5t-58.5 -101t-50 -34q-18 0 -29.5 13.5t-11.5 35.5zM1468 233q0 42 22 131t69 201q30 68 43.5 93.5t30 40t40.5 14.5q35 0 83 -16.5t81 -43.5q12 -9 12 -28t-8 -43l-65 -244q-4 -16 -4 -25 q0 -21 13 -34t32 -13h55q18 0 18 15l-12 405q0 31 66 31q71 0 71 -31l-10 -403q0 -13 16 -13l72 -4q49 -3 49 -41q0 -17 -10 -28t-27 -11l-69 -4q-5 0 -9 -4t-4 -10l-8 -109q-3 -67 -139 -67q-127 0 -133 67l-6 113q0 14 -15 14h-194q-60 0 -60 47z" />
<glyph unicode="&#xbf;" horiz-adv-x="1018" d="M23 -98q0 118 84 184t239 66q91 0 213 -25l23 254q5 45 41 70.5t98 25.5q60 0 96.5 -25.5t42.5 -70.5l51 -397q-112 22 -192 22q-89 0 -154 -21.5t-98 -61.5t-33 -95q0 -64 45.5 -121t122.5 -84q0 12 -0.5 19t-1.5 16q0 103 52 158t149 55q91 0 137.5 -42.5t46.5 -123.5 q0 -99 -91.5 -154t-260.5 -55q-100 0 -194.5 23t-173.5 65t-140 101q-102 98 -102 217zM522 731q0 55 25.5 98.5t69 69t98.5 25.5q81 0 136.5 -56.5t55.5 -136.5q0 -81 -55.5 -137.5t-136.5 -56.5q-83 0 -138 56t-55 138z" />
<glyph unicode="&#xc0;" horiz-adv-x="1108" d="M-18 86q0 20 17.5 99t51 197t92 286.5t138.5 365.5q57 138 99 216.5t89 119.5t106 41q66 0 109.5 -38.5t70.5 -96.5t83 -205q91 -243 152 -440t89.5 -316t28.5 -153q0 -44 -40 -85.5t-109 -67t-146 -25.5q-72 0 -112 17.5t-58 61.5l-59 156q-68 -29 -160 -29 q-108 0 -207 37l-53 -168q-21 -65 -90 -65q-41 0 -66.5 26.5t-25.5 65.5zM320 1860q0 34 33.5 58t89.5 24q62 0 104 -16t54 -41l159 -312q6 -12 6 -26q0 -21 -14.5 -36.5t-38.5 -15.5q-45 0 -115 68l-266 264q-12 12 -12 33zM326 643q0 -125 52 -206t118 -81q63 0 110 75.5 t47 189.5q0 83 -24.5 147.5t-64 100.5t-81.5 36t-77.5 -32.5t-57.5 -92.5t-22 -137z" />
<glyph unicode="&#xc1;" horiz-adv-x="1108" d="M-18 86q0 20 17.5 99t51 197t92 286.5t138.5 365.5q57 138 99 216.5t89 119.5t106 41q66 0 109.5 -38.5t70.5 -96.5t83 -205q91 -243 152 -440t89.5 -316t28.5 -153q0 -44 -40 -85.5t-109 -67t-146 -25.5q-72 0 -112 17.5t-58 61.5l-59 156q-68 -29 -160 -29 q-108 0 -207 37l-53 -168q-21 -65 -90 -65q-41 0 -66.5 26.5t-25.5 65.5zM326 643q0 -125 52 -206t118 -81q63 0 110 75.5t47 189.5q0 83 -24.5 147.5t-64 100.5t-81.5 36t-77.5 -32.5t-57.5 -92.5t-22 -137zM392 1542q0 15 6 27l160 311q12 26 53.5 42t103.5 16 q55 0 89 -23.5t34 -56.5q0 -23 -12 -35l-266 -264q-68 -68 -115 -68q-25 0 -39 15t-14 36z" />
<glyph unicode="&#xc2;" horiz-adv-x="1108" d="M-18 86q0 20 17.5 99t51 197t92 286.5t138.5 365.5q57 138 99 216.5t89 119.5t106 41q66 0 109.5 -38.5t70.5 -96.5t83 -205q91 -243 152 -440t89.5 -316t28.5 -153q0 -44 -40 -85.5t-109 -67t-146 -25.5q-72 0 -112 17.5t-58 61.5l-59 156q-68 -29 -160 -29 q-108 0 -207 37l-53 -168q-21 -65 -90 -65q-41 0 -66.5 26.5t-25.5 65.5zM293 1542q0 66 56 187q56 118 116.5 181t112.5 63q91 0 197 -172q29 -48 50.5 -99t31.5 -91t10 -64q0 -50 -35 -50q-61 0 -254 240q-188 -242 -252 -242q-33 0 -33 47zM326 643q0 -125 52 -206 t118 -81q63 0 110 75.5t47 189.5q0 83 -24.5 147.5t-64 100.5t-81.5 36t-77.5 -32.5t-57.5 -92.5t-22 -137z" />
<glyph unicode="&#xc3;" horiz-adv-x="1108" d="M-18 86q0 20 17.5 99t51 197t92 286.5t138.5 365.5q57 138 99 216.5t89 119.5t106 41q66 0 109.5 -38.5t70.5 -96.5t83 -205q91 -243 152 -440t89.5 -316t28.5 -153q0 -44 -40 -85.5t-109 -67t-146 -25.5q-72 0 -112 17.5t-58 61.5l-59 156q-68 -29 -160 -29 q-108 0 -207 37l-53 -168q-21 -65 -90 -65q-41 0 -66.5 26.5t-25.5 65.5zM281 1672q0 99 45.5 156t116.5 57q55 0 110 -43l91 -70q31 -27 69 -27q39 0 55 31q11 20 15 51t9 43t22 12q25 0 44 -36.5t19 -98.5q0 -96 -46.5 -153.5t-121.5 -57.5q-49 0 -104 43l-90 70 q-39 27 -70 27t-53 -31q-9 -15 -11.5 -33l-5 -36t-8 -28t-22.5 -10q-24 0 -44 36.5t-20 97.5zM326 643q0 -125 52 -206t118 -81q63 0 110 75.5t47 189.5q0 83 -24.5 147.5t-64 100.5t-81.5 36t-77.5 -32.5t-57.5 -92.5t-22 -137z" />
<glyph unicode="&#xc4;" horiz-adv-x="1108" d="M-18 86q0 20 17.5 99t51 197t92 286.5t138.5 365.5q57 138 99 216.5t89 119.5t106 41q66 0 109.5 -38.5t70.5 -96.5t83 -205q91 -243 152 -440t89.5 -316t28.5 -153q0 -44 -40 -85.5t-109 -67t-146 -25.5q-72 0 -112 17.5t-58 61.5l-59 156q-68 -29 -160 -29 q-108 0 -207 37l-53 -168q-21 -65 -90 -65q-41 0 -66.5 26.5t-25.5 65.5zM256 1710q0 61 43.5 104.5t102.5 43.5q40 0 73.5 -19.5t52.5 -53t19 -75.5q0 -59 -42 -101t-103 -42q-60 0 -103 42t-43 101zM326 643q0 -125 52 -206t118 -81q63 0 110 75.5t47 189.5 q0 83 -24.5 147.5t-64 100.5t-81.5 36t-77.5 -32.5t-57.5 -92.5t-22 -137zM613 1710q0 62 42 105t103 43q40 0 74 -20t53 -53t19 -75q0 -59 -42 -101t-104 -42q-61 0 -103 42t-42 101z" />
<glyph unicode="&#xc5;" horiz-adv-x="1108" d="M-18 86q0 14 12 71.5t27.5 117.5t43.5 153.5t76 233.5q59 166 116.5 308t95.5 219.5t55 100.5l16 23q-48 40 -71 85t-23 99q0 63 30.5 115.5t83 83t115.5 30.5t115.5 -30.5t83 -83t30.5 -115.5q0 -92 -71 -166q32 -32 121 -268q75 -202 126 -356.5t82 -262t46.5 -179.5 t15.5 -101q0 -44 -40 -85.5t-109 -67t-146 -25.5q-72 0 -112.5 17.5t-57.5 62.5l-59 155q-66 -28 -160 -28q-111 0 -207 36l-53 -170q-21 -65 -90 -65q-41 0 -66.5 26.5t-25.5 65.5zM326 643q0 -125 52 -206t118 -81q63 0 110 75.5t47 189.5q0 83 -24.5 147.5t-64 100.5 t-81.5 36t-77.5 -32.5t-57.5 -92.5t-22 -137zM408 1497q0 -65 43 -108t108 -43t108.5 42.5t43.5 108.5q0 62 -45 107t-107 45q-65 0 -108 -44t-43 -108z" />
<glyph unicode="&#xc6;" horiz-adv-x="1534" d="M-12 86q0 32 30 154t97 324t176 464q84 202 146 287.5t149 85.5q74 0 147 -76q40 37 113.5 50.5t200.5 13.5q485 0 485 -150q0 -94 -80 -94q6 0 -69 7.5t-164 10.5q-25 -8 -32 -88.5t-9 -288.5l243 -30q21 -3 36.5 -21.5t15.5 -44.5q0 -27 -14 -46.5t-36 -25.5l-247 -55 q-2 -49 -2 -133q0 -214 38 -229q76 2 153 10t83 8q40 0 61 -24t21 -70q0 -48 -36 -78t-107.5 -46.5t-173.5 -22t-267 -5.5q-136 0 -206.5 26.5t-100.5 102.5l-45 119q-66 -28 -160 -28q-111 0 -207 36l-55 -170q-20 -65 -90 -65q-41 0 -67.5 26.5t-26.5 65.5zM336 643 q0 -83 24 -148.5t63.5 -102t82.5 -36.5t79 33.5t57.5 95.5t21.5 146q0 76 -24.5 138.5t-64 99t-81.5 36.5t-78 -33t-58 -92t-22 -137z" />
<glyph unicode="&#xc7;" horiz-adv-x="1149" d="M70 647q0 183 38 323.5t113.5 237t182 145t245.5 48.5q134 0 238 -39.5t159.5 -107.5t55.5 -152q0 -109 -51.5 -171.5t-139.5 -62.5q-104 0 -160 83.5t-57 240.5q-145 -127 -145 -526q0 -216 65 -329.5t183 -113.5q55 0 90 18t83.5 50.5t71.5 32.5q30 0 48 -18t18 -48 q0 -46 -56 -105t-163 -107t-242 -60v-27q129 -48 129 -207q0 -97 -52 -149t-151 -52q-77 0 -127.5 25.5t-56.5 63.5q3 22 37 22q14 0 37.5 -9t32.5 -9q86 0 86 143q0 77 -37 121q-15 12 -15 29t15 32v17q-114 14 -201.5 63.5t-149 134t-93 202t-31.5 261.5z" />
<glyph unicode="&#xc8;" horiz-adv-x="1030" d="M106 778q0 241 11 383t30 170q49 70 291 70q181 0 303.5 -15.5t182 -48.5t59.5 -86q0 -50 -22.5 -72t-73.5 -22q-28 0 -90 11.5t-88 11.5q-36 0 -53 -20t-21.5 -59t-5.5 -153t-2 -149l245 -31q21 -3 36.5 -21.5t15.5 -44.5q0 -25 -15 -46t-35 -25l-249 -56 q0 -77 -0.5 -116t-1.5 -84q0 -67 5.5 -102t22.5 -50.5t51 -15.5q26 0 87.5 11t97.5 11q50 0 72 -21.5t22 -72.5q0 -58 -61 -91.5t-181.5 -46.5t-322.5 -13q-166 0 -213 39q-32 26 -51 83.5t-28.5 147.5t-13.5 224t-4 300zM297 1860q0 34 33.5 58t89.5 24q62 0 104 -16 t54 -41l159 -312q6 -12 6 -26q0 -21 -14.5 -36.5t-38.5 -15.5q-45 0 -115 68l-266 264q-12 12 -12 33z" />
<glyph unicode="&#xc9;" horiz-adv-x="1030" d="M106 778q0 241 11 383t30 170q49 70 291 70q181 0 303.5 -15.5t182 -48.5t59.5 -86q0 -50 -22.5 -72t-73.5 -22q-28 0 -90 11.5t-88 11.5q-36 0 -53 -20t-21.5 -59t-5.5 -153t-2 -149l245 -31q21 -3 36.5 -21.5t15.5 -44.5q0 -25 -15 -46t-35 -25l-249 -56 q0 -77 -0.5 -116t-1.5 -84q0 -67 5.5 -102t22.5 -50.5t51 -15.5q26 0 87.5 11t97.5 11q50 0 72 -21.5t22 -72.5q0 -58 -61 -91.5t-181.5 -46.5t-322.5 -13q-166 0 -213 39q-32 26 -51 83.5t-28.5 147.5t-13.5 224t-4 300zM369 1542q0 15 6 27l160 311q12 26 53.5 42 t103.5 16q55 0 89 -23.5t34 -56.5q0 -23 -12 -35l-266 -264q-68 -68 -115 -68q-25 0 -39 15t-14 36z" />
<glyph unicode="&#xca;" horiz-adv-x="1030" d="M106 778q0 241 11 383t30 170q49 70 291 70q181 0 303.5 -15.5t182 -48.5t59.5 -86q0 -50 -22.5 -72t-73.5 -22q-28 0 -90 11.5t-88 11.5q-36 0 -53 -20t-21.5 -59t-5.5 -153t-2 -149l245 -31q21 -3 36.5 -21.5t15.5 -44.5q0 -25 -15 -46t-35 -25l-249 -56 q0 -77 -0.5 -116t-1.5 -84q0 -67 5.5 -102t22.5 -50.5t51 -15.5q26 0 87.5 11t97.5 11q50 0 72 -21.5t22 -72.5q0 -58 -61 -91.5t-181.5 -46.5t-322.5 -13q-166 0 -213 39q-32 26 -51 83.5t-28.5 147.5t-13.5 224t-4 300zM270 1542q0 66 56 187q56 118 116.5 181t112.5 63 q91 0 197 -172q29 -48 50.5 -99t31.5 -91t10 -64q0 -50 -35 -50q-61 0 -254 240q-188 -242 -252 -242q-33 0 -33 47z" />
<glyph unicode="&#xcb;" horiz-adv-x="1030" d="M106 778q0 241 11 383t30 170q49 70 291 70q181 0 303.5 -15.5t182 -48.5t59.5 -86q0 -50 -22.5 -72t-73.5 -22q-28 0 -90 11.5t-88 11.5q-36 0 -53 -20t-21.5 -59t-5.5 -153t-2 -149l245 -31q21 -3 36.5 -21.5t15.5 -44.5q0 -25 -15 -46t-35 -25l-249 -56 q0 -77 -0.5 -116t-1.5 -84q0 -67 5.5 -102t22.5 -50.5t51 -15.5q26 0 87.5 11t97.5 11q50 0 72 -21.5t22 -72.5q0 -58 -61 -91.5t-181.5 -46.5t-322.5 -13q-166 0 -213 39q-32 26 -51 83.5t-28.5 147.5t-13.5 224t-4 300zM233 1710q0 61 43.5 104.5t102.5 43.5 q40 0 73.5 -19.5t52.5 -53t19 -75.5q0 -59 -42 -101t-103 -42q-60 0 -103 42t-43 101zM590 1710q0 62 42 105t103 43q40 0 74 -20t53 -53t19 -75q0 -59 -42 -101t-104 -42q-61 0 -103 42t-42 101z" />
<glyph unicode="&#xcc;" horiz-adv-x="678" d="M82 1860q0 34 33.5 58t89.5 24q62 0 104 -16t54 -41l159 -312q6 -12 6 -26q0 -21 -14.5 -36.5t-38.5 -15.5q-45 0 -115 68l-266 264q-12 12 -12 33zM98 707q0 178 1 269.5t5.5 171.5t15.5 130.5t27 71.5q46 51 191 51q147 0 192 -51q35 -39 42.5 -175.5t7.5 -476.5 q0 -24 -1.5 -60.5t-3.5 -87.5t-2 -79q1 -36 1.5 -66t0.5 -81q0 -114 -7.5 -175t-31 -97.5t-70 -52t-132.5 -15.5q-141 0 -187 55q-21 25 -32 106t-14 200t-3 362z" />
<glyph unicode="&#xcd;" horiz-adv-x="678" d="M98 707q0 178 1 269.5t5.5 171.5t15.5 130.5t27 71.5q46 51 191 51q147 0 192 -51q35 -39 42.5 -175.5t7.5 -476.5q0 -24 -1.5 -60.5t-3.5 -87.5t-2 -79q1 -36 1.5 -66t0.5 -81q0 -114 -7.5 -175t-31 -97.5t-70 -52t-132.5 -15.5q-141 0 -187 55q-21 25 -32 106t-14 200 t-3 362zM154 1542q0 15 6 27l160 311q12 26 53.5 42t103.5 16q55 0 89 -23.5t34 -56.5q0 -23 -12 -35l-266 -264q-68 -68 -115 -68q-25 0 -39 15t-14 36z" />
<glyph unicode="&#xce;" horiz-adv-x="678" d="M55 1542q0 66 56 187q56 118 116.5 181t112.5 63q91 0 197 -172q29 -48 50.5 -99t31.5 -91t10 -64q0 -50 -35 -50q-61 0 -254 240q-188 -242 -252 -242q-33 0 -33 47zM98 707q0 178 1 269.5t5.5 171.5t15.5 130.5t27 71.5q46 51 191 51q147 0 192 -51q35 -39 42.5 -175.5 t7.5 -476.5q0 -24 -1.5 -60.5t-3.5 -87.5t-2 -79q1 -36 1.5 -66t0.5 -81q0 -114 -7.5 -175t-31 -97.5t-70 -52t-132.5 -15.5q-141 0 -187 55q-21 25 -32 106t-14 200t-3 362z" />
<glyph unicode="&#xcf;" horiz-adv-x="678" d="M18 1710q0 61 43.5 104.5t102.5 43.5q40 0 73.5 -19.5t52.5 -53t19 -75.5q0 -59 -42 -101t-103 -42q-60 0 -103 42t-43 101zM98 707q0 178 1 269.5t5.5 171.5t15.5 130.5t27 71.5q46 51 191 51q147 0 192 -51q35 -39 42.5 -175.5t7.5 -476.5q0 -24 -1.5 -60.5t-3.5 -87.5 t-2 -79q1 -36 1.5 -66t0.5 -81q0 -114 -7.5 -175t-31 -97.5t-70 -52t-132.5 -15.5q-141 0 -187 55q-21 25 -32 106t-14 200t-3 362zM375 1710q0 62 42 105t103 43q40 0 74 -20t53 -53t19 -75q0 -59 -42 -101t-104 -42q-61 0 -103 42t-42 101z" />
<glyph unicode="&#xd0;" horiz-adv-x="1245" d="M-98 721q0 49 18.5 69t58 25.5t134.5 5.5q2 62 3.5 168.5t6 181.5t13 116.5t26.5 62.5q46 51 188 51h279q191 0 312.5 -74t178 -228t56.5 -394q0 -180 -39 -316t-117 -226t-196 -134.5t-275 -44.5h-203q-140 0 -184 53q-17 23 -25.5 68t-13 129.5t-6.5 187t-4 201.5 q-90 2 -131.5 6.5t-60.5 24t-19 67.5zM586 821h39q129 0 170 -16t41 -86q0 -48 -22 -67.5t-70.5 -24t-155.5 -6.5q15 -163 67.5 -250.5t130.5 -87.5q47 0 85 30t65.5 86.5t42 141.5t14.5 196q0 142 -26 242.5t-72.5 151.5t-108.5 51q-80 0 -133.5 -94t-66.5 -267z" />
<glyph unicode="&#xd1;" horiz-adv-x="1270" d="M113 750q0 197 2.5 296.5t10 171.5t24.5 107q36 76 202 76q90 0 140 -17.5t81 -70.5l351 -594v559q0 123 112 123q81 0 101 -80q12 -52 15 -198.5t3 -504.5v-249q1 -24 1.5 -44.5t0.5 -54.5q0 -92 -17 -143t-67 -82q-49 -31 -104.5 -48t-98.5 -17q-61 0 -102.5 39 t-97.5 135l-326 559l-2 -607q0 -122 -113 -122q-83 0 -98 79q-6 30 -10 116t-6 208.5t-2 362.5zM360 1672q0 99 45.5 156t116.5 57q55 0 110 -43l91 -70q31 -27 69 -27q39 0 55 31q11 20 15 51t9 43t22 12q25 0 44 -36.5t19 -98.5q0 -96 -46.5 -153.5t-121.5 -57.5 q-49 0 -104 43l-90 70q-39 27 -70 27t-53 -31q-9 -15 -11.5 -33l-5 -36t-8 -28t-22.5 -10q-24 0 -44 36.5t-20 97.5z" />
<glyph unicode="&#xd2;" horiz-adv-x="1241" d="M72 694q0 162 39.5 296.5t111.5 225t171.5 138t223.5 47.5q273 0 413 -176.5t140 -524.5q0 -226 -66.5 -387t-191.5 -245t-295 -84q-122 0 -223.5 48t-173.5 139.5t-110.5 224t-38.5 298.5zM363 1860q0 34 33.5 58t89.5 24q62 0 104 -16t54 -41l159 -312q6 -12 6 -26 q0 -21 -14.5 -36.5t-38.5 -15.5q-45 0 -115 68l-266 264q-12 12 -12 33zM580 721q0 -215 55.5 -334t146.5 -119q63 0 109.5 52.5t72 154t25.5 248.5q0 109 -15 191.5t-42 138.5t-65.5 85t-84.5 29q-60 0 -105 -51.5t-71 -152t-26 -242.5z" />
<glyph unicode="&#xd3;" horiz-adv-x="1241" d="M72 694q0 162 39.5 296.5t111.5 225t171.5 138t223.5 47.5q273 0 413 -176.5t140 -524.5q0 -226 -66.5 -387t-191.5 -245t-295 -84q-122 0 -223.5 48t-173.5 139.5t-110.5 224t-38.5 298.5zM435 1542q0 15 6 27l160 311q12 26 53.5 42t103.5 16q55 0 89 -23.5t34 -56.5 q0 -23 -12 -35l-266 -264q-68 -68 -115 -68q-25 0 -39 15t-14 36zM580 721q0 -215 55.5 -334t146.5 -119q63 0 109.5 52.5t72 154t25.5 248.5q0 109 -15 191.5t-42 138.5t-65.5 85t-84.5 29q-60 0 -105 -51.5t-71 -152t-26 -242.5z" />
<glyph unicode="&#xd4;" horiz-adv-x="1241" d="M72 694q0 162 39.5 296.5t111.5 225t171.5 138t223.5 47.5q273 0 413 -176.5t140 -524.5q0 -226 -66.5 -387t-191.5 -245t-295 -84q-122 0 -223.5 48t-173.5 139.5t-110.5 224t-38.5 298.5zM336 1542q0 66 56 187q56 118 116.5 181t112.5 63q91 0 197 -172 q29 -48 50.5 -99t31.5 -91t10 -64q0 -50 -35 -50q-61 0 -254 240q-188 -242 -252 -242q-33 0 -33 47zM580 721q0 -215 55.5 -334t146.5 -119q63 0 109.5 52.5t72 154t25.5 248.5q0 109 -15 191.5t-42 138.5t-65.5 85t-84.5 29q-60 0 -105 -51.5t-71 -152t-26 -242.5z" />
<glyph unicode="&#xd5;" horiz-adv-x="1241" d="M72 694q0 162 39.5 296.5t111.5 225t171.5 138t223.5 47.5q273 0 413 -176.5t140 -524.5q0 -226 -66.5 -387t-191.5 -245t-295 -84q-122 0 -223.5 48t-173.5 139.5t-110.5 224t-38.5 298.5zM324 1672q0 99 45.5 156t116.5 57q55 0 110 -43l91 -70q31 -27 69 -27 q39 0 55 31q11 20 15 51t9 43t22 12q25 0 44 -36.5t19 -98.5q0 -96 -46.5 -153.5t-121.5 -57.5q-49 0 -104 43l-90 70q-39 27 -70 27t-53 -31q-9 -15 -11.5 -33l-5 -36t-8 -28t-22.5 -10q-24 0 -44 36.5t-20 97.5zM580 721q0 -215 55.5 -334t146.5 -119q63 0 109.5 52.5 t72 154t25.5 248.5q0 109 -15 191.5t-42 138.5t-65.5 85t-84.5 29q-60 0 -105 -51.5t-71 -152t-26 -242.5z" />
<glyph unicode="&#xd6;" horiz-adv-x="1241" d="M72 694q0 162 39.5 296.5t111.5 225t171.5 138t223.5 47.5q273 0 413 -176.5t140 -524.5q0 -226 -66.5 -387t-191.5 -245t-295 -84q-122 0 -223.5 48t-173.5 139.5t-110.5 224t-38.5 298.5zM299 1710q0 61 43.5 104.5t102.5 43.5q40 0 73.5 -19.5t52.5 -53t19 -75.5 q0 -59 -42 -101t-103 -42q-60 0 -103 42t-43 101zM580 721q0 -215 55.5 -334t146.5 -119q63 0 109.5 52.5t72 154t25.5 248.5q0 109 -15 191.5t-42 138.5t-65.5 85t-84.5 29q-60 0 -105 -51.5t-71 -152t-26 -242.5zM656 1710q0 62 42 105t103 43q40 0 74 -20t53 -53t19 -75 q0 -59 -42 -101t-104 -42q-61 0 -103 42t-42 101z" />
<glyph unicode="&#xd7;" horiz-adv-x="1706" d="M268 170l441 440l-441 443l162 161l440 -440l441 440l162 -161l-441 -443l441 -440l-162 -162l-441 441l-440 -441z" />
<glyph unicode="&#xd8;" horiz-adv-x="1288" d="M72 688q0 225 67.5 384.5t194.5 244t299 84.5q107 0 198 -35.5t173 -112.5l69 105q71 104 105 104q4 0 16 -6q20 -26 20 -45q0 -30 -45 -117l-82 -161q84 -164 84 -439q0 -166 -38.5 -299t-112 -224.5t-178 -140t-230.5 -48.5q-92 0 -182 32l-49 -82q-65 -108 -111 -108 q-8 0 -20 4q-14 14 -14 33q0 39 51 135l39 72q-254 181 -254 620zM575 743q0 -107 13 -211l327 566q-29 42 -63 61t-80 19q-105 0 -151 -105.5t-46 -329.5zM639 365q49 -76 133 -76q73 0 117.5 48.5t65 148t20.5 257.5q0 76 -10 183z" />
<glyph unicode="&#xd9;" horiz-adv-x="1288" d="M92 639q0 259 3 388.5t14 212.5t34 110q46 51 189 51q87 0 132 -15.5t67.5 -52t28 -94t5.5 -180.5q0 -44 -0.5 -70t-1.5 -57q0 -244 13.5 -383t53.5 -206t118 -67q68 0 106 68.5t53 209t15 368.5q0 45 -0.5 75.5t-1.5 67.5v41q0 127 7 182.5t34.5 84t89.5 28.5 q86 0 114 -51q17 -28 24 -161t7 -421q0 -391 -135.5 -587.5t-403.5 -196.5q-160 0 -267.5 37t-173.5 115.5t-95 202.5t-29 300zM426 1860q0 34 33.5 58t89.5 24q62 0 104 -16t54 -41l159 -312q6 -12 6 -26q0 -21 -14.5 -36.5t-38.5 -15.5q-45 0 -115 68l-266 264 q-12 12 -12 33z" />
<glyph unicode="&#xda;" horiz-adv-x="1288" d="M92 639q0 259 3 388.5t14 212.5t34 110q46 51 189 51q87 0 132 -15.5t67.5 -52t28 -94t5.5 -180.5q0 -44 -0.5 -70t-1.5 -57q0 -244 13.5 -383t53.5 -206t118 -67q68 0 106 68.5t53 209t15 368.5q0 45 -0.5 75.5t-1.5 67.5v41q0 127 7 182.5t34.5 84t89.5 28.5 q86 0 114 -51q17 -28 24 -161t7 -421q0 -391 -135.5 -587.5t-403.5 -196.5q-160 0 -267.5 37t-173.5 115.5t-95 202.5t-29 300zM498 1542q0 15 6 27l160 311q12 26 53.5 42t103.5 16q55 0 89 -23.5t34 -56.5q0 -23 -12 -35l-266 -264q-68 -68 -115 -68q-25 0 -39 15t-14 36z " />
<glyph unicode="&#xdb;" horiz-adv-x="1288" d="M92 639q0 259 3 388.5t14 212.5t34 110q46 51 189 51q87 0 132 -15.5t67.5 -52t28 -94t5.5 -180.5q0 -44 -0.5 -70t-1.5 -57q0 -244 13.5 -383t53.5 -206t118 -67q68 0 106 68.5t53 209t15 368.5q0 45 -0.5 75.5t-1.5 67.5v41q0 127 7 182.5t34.5 84t89.5 28.5 q86 0 114 -51q17 -28 24 -161t7 -421q0 -391 -135.5 -587.5t-403.5 -196.5q-160 0 -267.5 37t-173.5 115.5t-95 202.5t-29 300zM399 1542q0 66 56 187q56 118 116.5 181t112.5 63q91 0 197 -172q29 -48 50.5 -99t31.5 -91t10 -64q0 -50 -35 -50q-61 0 -254 240 q-188 -242 -252 -242q-33 0 -33 47z" />
<glyph unicode="&#xdc;" horiz-adv-x="1288" d="M92 639q0 259 3 388.5t14 212.5t34 110q46 51 189 51q87 0 132 -15.5t67.5 -52t28 -94t5.5 -180.5q0 -44 -0.5 -70t-1.5 -57q0 -244 13.5 -383t53.5 -206t118 -67q68 0 106 68.5t53 209t15 368.5q0 45 -0.5 75.5t-1.5 67.5v41q0 127 7 182.5t34.5 84t89.5 28.5 q86 0 114 -51q17 -28 24 -161t7 -421q0 -391 -135.5 -587.5t-403.5 -196.5q-160 0 -267.5 37t-173.5 115.5t-95 202.5t-29 300zM362 1710q0 61 43.5 104.5t102.5 43.5q40 0 73.5 -19.5t52.5 -53t19 -75.5q0 -59 -42 -101t-103 -42q-60 0 -103 42t-43 101zM719 1710 q0 62 42 105t103 43q40 0 74 -20t53 -53t19 -75q0 -59 -42 -101t-104 -42q-61 0 -103 42t-42 101z" />
<glyph unicode="&#xdd;" horiz-adv-x="1075" d="M-25 1147q0 32 44 81t122 99q98 62 176 62q74 0 119.5 -56.5t98.5 -191.5l159 -410l191 582q8 23 37 42t63 19q115 0 115 -123q0 -67 -31.5 -153t-122.5 -300.5t-141 -353.5q-3 -113 -7 -218t-22 -152.5t-65 -68.5t-146 -21q-87 0 -133.5 19t-64.5 61.5t-21 90.5t-10 230 q-125 233 -204.5 390t-118 246.5t-38.5 125.5zM414 1542q0 15 6 27l160 311q12 26 53.5 42t103.5 16q55 0 89 -23.5t34 -56.5q0 -23 -12 -35l-266 -264q-68 -68 -115 -68q-25 0 -39 15t-14 36z" />
<glyph unicode="&#xde;" horiz-adv-x="1145" d="M113 502q0 348 4.5 535.5t13.5 244.5q20 117 141 117q123 0 123 -115v-6l-2 -84q128 4 191 4q534 0 534 -430q0 -120 -35.5 -219.5t-100 -173t-153 -114t-190.5 -40.5q-82 0 -142.5 10t-105.5 39v-168q0 -120 -123 -120q-101 0 -123 73q-13 48 -22.5 164t-9.5 283z M612 778q0 -124 52 -205t118 -81q43 0 79 33t57.5 95t21.5 146q0 76 -24.5 138.5t-64 99t-81.5 36.5q-64 0 -111 -72.5t-47 -189.5z" />
<glyph unicode="&#xdf;" horiz-adv-x="1307" d="M90 96v330q0 371 54.5 610t170.5 357t299 118q137 0 210 -63t73 -182q0 -43 -6 -82.5t-21.5 -120.5t-20.5 -113t-5 -82q0 -54 14.5 -92t42.5 -67.5t80 -69.5q7 -5 71.5 -49t86.5 -62q137 -114 137 -247q0 -86 -51.5 -152.5t-149 -103.5t-229.5 -37q-170 0 -259 50.5 t-89 143.5q0 80 38.5 120t112.5 40q101 0 157 -65t64 -197q74 52 74 121q0 56 -41.5 99t-142.5 108q-85 56 -135 100t-76.5 93t-26.5 114q0 63 17.5 111t70.5 163q44 89 67 150t23 121q0 62 -22 94t-64 32q-45 0 -81 -44.5t-57 -128.5t-21 -199v-918q0 -53 -47 -82.5 t-138 -29.5q-86 0 -133 30t-47 82z" />
<glyph unicode="&#xe0;" horiz-adv-x="958" d="M39 717q0 54 32.5 102.5t92.5 86.5t146.5 59.5t189.5 21.5q207 0 301 -127t94 -399q0 -157 -16 -253.5t-41 -127.5q-35 -41 -140 -68.5t-258 -27.5q-120 0 -207 34t-131.5 98.5t-44.5 155.5q0 85 46.5 153t138 118t227.5 82q-3 173 -57 258q-22 -141 -85 -218t-151 -77 q-59 0 -98 35.5t-39 93.5zM199 1448q0 34 33.5 58t89.5 24q62 0 104 -16t54 -41l159 -312q6 -12 6 -26q0 -21 -14.5 -36.5t-38.5 -15.5q-45 0 -115 68l-266 264q-12 12 -12 33zM205 274q0 -73 39 -119t96 -46q55 0 94 46t39 119q0 75 -39 121.5t-94 46.5q-38 0 -68.5 -21 t-48.5 -60.5t-18 -86.5z" />
<glyph unicode="&#xe1;" horiz-adv-x="958" d="M39 717q0 54 32.5 102.5t92.5 86.5t146.5 59.5t189.5 21.5q207 0 301 -127t94 -399q0 -157 -16 -253.5t-41 -127.5q-35 -41 -140 -68.5t-258 -27.5q-120 0 -207 34t-131.5 98.5t-44.5 155.5q0 85 46.5 153t138 118t227.5 82q-3 173 -57 258q-22 -141 -85 -218t-151 -77 q-59 0 -98 35.5t-39 93.5zM205 274q0 -73 39 -119t96 -46q55 0 94 46t39 119q0 75 -39 121.5t-94 46.5q-38 0 -68.5 -21t-48.5 -60.5t-18 -86.5zM271 1130q0 15 6 27l160 311q12 26 53.5 42t103.5 16q55 0 89 -23.5t34 -56.5q0 -23 -12 -35l-266 -264q-68 -68 -115 -68 q-25 0 -39 15t-14 36z" />
<glyph unicode="&#xe2;" horiz-adv-x="958" d="M39 717q0 54 32.5 102.5t92.5 86.5t146.5 59.5t189.5 21.5q207 0 301 -127t94 -399q0 -157 -16 -253.5t-41 -127.5q-35 -41 -140 -68.5t-258 -27.5q-120 0 -207 34t-131.5 98.5t-44.5 155.5q0 85 46.5 153t138 118t227.5 82q-3 173 -57 258q-22 -141 -85 -218t-151 -77 q-59 0 -98 35.5t-39 93.5zM172 1130q0 66 56 187q56 118 116.5 181t112.5 63q91 0 197 -172q29 -48 50.5 -99t31.5 -91t10 -64q0 -50 -35 -50q-61 0 -254 240q-188 -242 -252 -242q-33 0 -33 47zM205 274q0 -73 39 -119t96 -46q55 0 94 46t39 119q0 75 -39 121.5t-94 46.5 q-38 0 -68.5 -21t-48.5 -60.5t-18 -86.5z" />
<glyph unicode="&#xe3;" horiz-adv-x="958" d="M39 717q0 54 32.5 102.5t92.5 86.5t146.5 59.5t189.5 21.5q207 0 301 -127t94 -399q0 -157 -16 -253.5t-41 -127.5q-35 -41 -140 -68.5t-258 -27.5q-120 0 -207 34t-131.5 98.5t-44.5 155.5q0 85 46.5 153t138 118t227.5 82q-3 173 -57 258q-22 -141 -85 -218t-151 -77 q-59 0 -98 35.5t-39 93.5zM160 1260q0 99 45.5 156t116.5 57q55 0 110 -43l91 -70q31 -27 69 -27q39 0 55 31q11 20 15 51t9 43t22 12q25 0 44 -36.5t19 -98.5q0 -96 -46.5 -153.5t-121.5 -57.5q-49 0 -104 43l-90 70q-39 27 -70 27t-53 -31q-9 -15 -11.5 -33l-5 -36t-8 -28 t-22.5 -10q-24 0 -44 36.5t-20 97.5zM205 274q0 -73 39 -119t96 -46q55 0 94 46t39 119q0 75 -39 121.5t-94 46.5q-38 0 -68.5 -21t-48.5 -60.5t-18 -86.5z" />
<glyph unicode="&#xe4;" horiz-adv-x="958" d="M39 717q0 54 32.5 102.5t92.5 86.5t146.5 59.5t189.5 21.5q207 0 301 -127t94 -399q0 -157 -16 -253.5t-41 -127.5q-35 -41 -140 -68.5t-258 -27.5q-120 0 -207 34t-131.5 98.5t-44.5 155.5q0 85 46.5 153t138 118t227.5 82q-3 173 -57 258q-22 -141 -85 -218t-151 -77 q-59 0 -98 35.5t-39 93.5zM135 1298q0 61 43.5 104.5t102.5 43.5q40 0 73.5 -19.5t52.5 -53t19 -75.5q0 -59 -42 -101t-103 -42q-60 0 -103 42t-43 101zM205 274q0 -73 39 -119t96 -46q55 0 94 46t39 119q0 75 -39 121.5t-94 46.5q-38 0 -68.5 -21t-48.5 -60.5t-18 -86.5z M492 1298q0 62 42 105t103 43q40 0 74 -20t53 -53t19 -75q0 -59 -42 -101t-104 -42q-61 0 -103 42t-42 101z" />
<glyph unicode="&#xe5;" horiz-adv-x="958" d="M31 717q0 54 32.5 102.5t92.5 86.5t146.5 59.5t189.5 21.5q207 0 301 -127t94 -399q0 -136 -13.5 -236t-37.5 -162q-212 -79 -390 -79q-95 0 -169 19.5t-125.5 57.5t-77 91t-25.5 120q0 85 46 153t137.5 118t228.5 82q-3 172 -58 258q-22 -142 -84.5 -218.5t-150.5 -76.5 q-59 0 -98 35.5t-39 93.5zM197 260q0 -72 39 -119t96 -47q54 0 93.5 47.5t39.5 118.5q0 72 -39.5 120t-93.5 48q-57 0 -96 -47t-39 -121zM244 1313q0 97 66 163t163 66q63 0 115.5 -30.5t83 -83t30.5 -115.5t-30.5 -116t-83 -83.5t-115.5 -30.5q-98 0 -163.5 66.5 t-65.5 163.5zM322 1313q0 -65 43.5 -108.5t107.5 -43.5q62 0 107 44t45 108q0 63 -45 107t-107 44q-64 0 -107.5 -43.5t-43.5 -107.5z" />
<glyph unicode="&#xe6;" horiz-adv-x="1298" d="M27 717q0 75 51.5 137t148.5 97.5t228 35.5q162 0 233 -92q31 31 74 51.5t97.5 31.5t113.5 11q99 0 170.5 -31t109 -90t37.5 -137q0 -90 -44 -164t-124.5 -115.5t-183.5 -41.5q-41 0 -82 6q13 -100 61.5 -155.5t118.5 -55.5q33 0 86.5 20.5t75.5 20.5t36.5 -13.5 t14.5 -35.5q0 -44 -48.5 -94.5t-132.5 -84.5t-185 -34q-65 0 -111.5 18.5t-85.5 60.5q-124 -79 -270 -79q-168 0 -269.5 78t-101.5 204q0 263 412 359q-3 172 -58 258q-22 -142 -84.5 -218.5t-150.5 -76.5q-61 0 -99 35.5t-38 93.5zM193 260q0 -72 39 -119t96 -47 q55 0 94 47t39 119q0 73 -39 120.5t-94 47.5q-57 0 -96 -47t-39 -121zM874 709q0 -72 40 -120t94 -48q56 0 95.5 47.5t39.5 120.5t-40 119t-95 46q-53 0 -93.5 -47t-40.5 -118z" />
<glyph unicode="&#xe7;" horiz-adv-x="864" d="M41 471q0 123 29 217.5t86 162.5t138 102t183 34q112 0 193 -31.5t124.5 -87.5t43.5 -127q0 -77 -43 -122.5t-113 -45.5q-156 0 -162 265q-43 -56 -59.5 -134t-16.5 -200q0 -96 22.5 -164.5t63.5 -102.5t101 -34q29 0 82.5 19.5t74.5 19.5q56 0 56 -52q0 -67 -97 -131.5 t-258 -74.5v-25q69 -25 99 -76t30 -137q0 -93 -53 -144t-149 -51q-77 0 -127 25t-58 64q3 22 37 22q14 0 37.5 -9t32.5 -9q86 0 86 143q0 79 -37 121q-14 11 -14 29t14 32v21q-111 18 -188.5 79.5t-117.5 164.5t-40 237z" />
<glyph unicode="&#xe8;" horiz-adv-x="901" d="M43 465q0 166 52.5 283t154.5 178t244 61q185 0 286 -71t101 -201q0 -131 -99.5 -219t-253.5 -88q-37 0 -73 6q13 -102 60.5 -156.5t119.5 -54.5q34 0 87 20.5t75 20.5t36.5 -13.5t14.5 -35.5q0 -46 -52 -95.5t-143 -82.5t-202 -33q-122 0 -214.5 58.5t-143 169 t-50.5 253.5zM250 1448q0 34 33.5 58t89.5 24q62 0 104 -16t54 -41l159 -312q6 -12 6 -26q0 -21 -14.5 -36.5t-38.5 -15.5q-45 0 -115 68l-266 264q-12 12 -12 33zM465 707q0 -71 39.5 -119.5t93.5 -48.5q57 0 96 47.5t39 120.5t-39 119t-96 46q-53 0 -93 -47t-40 -118z" />
<glyph unicode="&#xe9;" horiz-adv-x="901" d="M43 465q0 166 52.5 283t154.5 178t244 61q185 0 286 -71t101 -201q0 -131 -99.5 -219t-253.5 -88q-37 0 -73 6q13 -102 60.5 -156.5t119.5 -54.5q34 0 87 20.5t75 20.5t36.5 -13.5t14.5 -35.5q0 -46 -52 -95.5t-143 -82.5t-202 -33q-122 0 -214.5 58.5t-143 169 t-50.5 253.5zM322 1130q0 15 6 27l160 311q12 26 53.5 42t103.5 16q55 0 89 -23.5t34 -56.5q0 -23 -12 -35l-266 -264q-68 -68 -115 -68q-25 0 -39 15t-14 36zM465 707q0 -71 39.5 -119.5t93.5 -48.5q57 0 96 47.5t39 120.5t-39 119t-96 46q-53 0 -93 -47t-40 -118z" />
<glyph unicode="&#xea;" horiz-adv-x="901" d="M43 465q0 166 52.5 283t154.5 178t244 61q185 0 286 -71t101 -201q0 -131 -99.5 -219t-253.5 -88q-37 0 -73 6q13 -102 60.5 -156.5t119.5 -54.5q34 0 87 20.5t75 20.5t36.5 -13.5t14.5 -35.5q0 -46 -52 -95.5t-143 -82.5t-202 -33q-122 0 -214.5 58.5t-143 169 t-50.5 253.5zM223 1130q0 66 56 187q56 118 116.5 181t112.5 63q91 0 197 -172q29 -48 50.5 -99t31.5 -91t10 -64q0 -50 -35 -50q-61 0 -254 240q-188 -242 -252 -242q-33 0 -33 47zM465 707q0 -71 39.5 -119.5t93.5 -48.5q57 0 96 47.5t39 120.5t-39 119t-96 46 q-53 0 -93 -47t-40 -118z" />
<glyph unicode="&#xeb;" horiz-adv-x="901" d="M43 465q0 166 52.5 283t154.5 178t244 61q185 0 286 -71t101 -201q0 -131 -99.5 -219t-253.5 -88q-37 0 -73 6q13 -102 60.5 -156.5t119.5 -54.5q34 0 87 20.5t75 20.5t36.5 -13.5t14.5 -35.5q0 -46 -52 -95.5t-143 -82.5t-202 -33q-122 0 -214.5 58.5t-143 169 t-50.5 253.5zM186 1298q0 61 43.5 104.5t102.5 43.5q40 0 73.5 -19.5t52.5 -53t19 -75.5q0 -59 -42 -101t-103 -42q-60 0 -103 42t-43 101zM465 707q0 -71 39.5 -119.5t93.5 -48.5q57 0 96 47.5t39 120.5t-39 119t-96 46q-53 0 -93 -47t-40 -118zM543 1298q0 62 42 105 t103 43q40 0 74 -20t53 -53t19 -75q0 -59 -42 -101t-104 -42q-61 0 -103 42t-42 101z" />
<glyph unicode="&#xec;" horiz-adv-x="537" d="M10 1448q0 34 33.5 58t89.5 24q62 0 104 -16t54 -41l159 -312q6 -12 6 -26q0 -21 -14.5 -36.5t-38.5 -15.5q-45 0 -115 68l-266 264q-12 12 -12 33zM86 96v793q0 47 48 73.5t134 26.5q91 0 138 -26t47 -74v-793q0 -53 -47 -82.5t-138 -29.5q-86 0 -134 30t-48 82z" />
<glyph unicode="&#xed;" horiz-adv-x="537" d="M82 1130q0 15 6 27l160 311q12 26 53.5 42t103.5 16q55 0 89 -23.5t34 -56.5q0 -23 -12 -35l-266 -264q-68 -68 -115 -68q-25 0 -39 15t-14 36zM86 96v793q0 47 48 73.5t134 26.5q91 0 138 -26t47 -74v-793q0 -53 -47 -82.5t-138 -29.5q-86 0 -134 30t-48 82z" />
<glyph unicode="&#xee;" horiz-adv-x="537" d="M-17 1130q0 66 56 187q56 118 116.5 181t112.5 63q91 0 197 -172q29 -48 50.5 -99t31.5 -91t10 -64q0 -50 -35 -50q-61 0 -254 240q-188 -242 -252 -242q-33 0 -33 47zM86 96v793q0 47 48 73.5t134 26.5q91 0 138 -26t47 -74v-793q0 -53 -47 -82.5t-138 -29.5 q-86 0 -134 30t-48 82z" />
<glyph unicode="&#xef;" horiz-adv-x="537" d="M-54 1298q0 61 43.5 104.5t102.5 43.5q40 0 73.5 -19.5t52.5 -53t19 -75.5q0 -59 -42 -101t-103 -42q-60 0 -103 42t-43 101zM86 96v793q0 47 48 73.5t134 26.5q91 0 138 -26t47 -74v-793q0 -53 -47 -82.5t-138 -29.5q-86 0 -134 30t-48 82zM303 1298q0 62 42 105t103 43 q40 0 74 -20t53 -53t19 -75q0 -59 -42 -101t-104 -42q-61 0 -103 42t-42 101z" />
<glyph unicode="&#xf0;" horiz-adv-x="1055" d="M55 444q0 403 488 533l-80 113q-81 -45 -145.5 -81.5t-95.5 -50.5t-50 -14q-25 0 -45.5 24.5t-20.5 51.5q0 19 15 36.5t49.5 41t76 48t126.5 73.5l-129 184q-11 18 -11 29q0 64 207 84q123 -38 217 -130q62 34 101.5 57t66.5 35.5t41 12.5q16 0 34.5 -12.5t28 -29.5 t9.5 -34q0 -20 -19 -39t-56.5 -43t-102.5 -65q235 -355 235 -674q0 -195 -57 -331t-167 -206.5t-265 -70.5q-103 0 -188 30.5t-144 91t-89 145.5t-30 191zM371 623q0 -59 22.5 -106.5t59.5 -74t84 -26.5q67 0 116 59t49 148t-49 147.5t-116 58.5q-47 0 -84 -26.5t-59.5 -73 t-22.5 -106.5z" />
<glyph unicode="&#xf1;" horiz-adv-x="1118" d="M88 641v135q0 77 17 122.5t56 67t103 21.5q164 0 170 -113q157 84 301 84q160 0 238 -108.5t78 -329.5q0 -206 -14 -319t-58.5 -165t-132.5 -52q-78 0 -114.5 19t-47 59t-10.5 122q1 45 1.5 78.5t0.5 56.5q0 205 -27 321t-69 116t-69.5 -89.5t-27.5 -246.5 q1 -33 1.5 -61.5t0.5 -73.5q0 -125 -12 -186t-50.5 -88t-121.5 -27q-67 0 -104 24t-64 88q-13 35 -29 181.5t-16 363.5zM262 1260q0 99 45.5 156t116.5 57q55 0 110 -43l91 -70q31 -27 69 -27q39 0 55 31q11 20 15 51t9 43t22 12q25 0 44 -36.5t19 -98.5q0 -96 -46.5 -153.5 t-121.5 -57.5q-49 0 -104 43l-90 70q-39 27 -70 27t-53 -31q-9 -15 -11.5 -33l-5 -36t-8 -28t-22.5 -10q-24 0 -44 36.5t-20 97.5z" />
<glyph unicode="&#xf2;" horiz-adv-x="940" d="M43 487q0 114 30 209.5t86 160.5t133.5 98.5t176.5 33.5q131 0 227.5 -58.5t148.5 -171t52 -267.5q0 -159 -51 -273.5t-147 -173.5t-230 -59q-128 0 -225 59.5t-149 172.5t-52 269zM213 1448q0 34 33.5 58t89.5 24q62 0 104 -16t54 -41l159 -312q6 -12 6 -26 q0 -21 -14.5 -36.5t-38.5 -15.5q-45 0 -115 68l-266 264q-12 12 -12 33zM444 530q0 -98 46 -161.5t106 -63.5q62 0 108 62.5t46 162.5q0 65 -21 116t-57 79.5t-76 28.5t-75.5 -28t-56 -80t-20.5 -116z" />
<glyph unicode="&#xf3;" horiz-adv-x="940" d="M43 487q0 114 30 209.5t86 160.5t133.5 98.5t176.5 33.5q131 0 227.5 -58.5t148.5 -171t52 -267.5q0 -159 -51 -273.5t-147 -173.5t-230 -59q-128 0 -225 59.5t-149 172.5t-52 269zM285 1130q0 15 6 27l160 311q12 26 53.5 42t103.5 16q55 0 89 -23.5t34 -56.5 q0 -23 -12 -35l-266 -264q-68 -68 -115 -68q-25 0 -39 15t-14 36zM444 530q0 -98 46 -161.5t106 -63.5q62 0 108 62.5t46 162.5q0 65 -21 116t-57 79.5t-76 28.5t-75.5 -28t-56 -80t-20.5 -116z" />
<glyph unicode="&#xf4;" horiz-adv-x="940" d="M43 487q0 114 30 209.5t86 160.5t133.5 98.5t176.5 33.5q131 0 227.5 -58.5t148.5 -171t52 -267.5q0 -159 -51 -273.5t-147 -173.5t-230 -59q-128 0 -225 59.5t-149 172.5t-52 269zM186 1130q0 66 56 187q56 118 116.5 181t112.5 63q91 0 197 -172q29 -48 50.5 -99 t31.5 -91t10 -64q0 -50 -35 -50q-61 0 -254 240q-188 -242 -252 -242q-33 0 -33 47zM444 530q0 -98 46 -161.5t106 -63.5q62 0 108 62.5t46 162.5q0 65 -21 116t-57 79.5t-76 28.5t-75.5 -28t-56 -80t-20.5 -116z" />
<glyph unicode="&#xf5;" horiz-adv-x="940" d="M43 487q0 114 30 209.5t86 160.5t133.5 98.5t176.5 33.5q131 0 227.5 -58.5t148.5 -171t52 -267.5q0 -159 -51 -273.5t-147 -173.5t-230 -59q-128 0 -225 59.5t-149 172.5t-52 269zM174 1260q0 99 45.5 156t116.5 57q55 0 110 -43l91 -70q31 -27 69 -27q39 0 55 31 q11 20 15 51t9 43t22 12q25 0 44 -36.5t19 -98.5q0 -96 -46.5 -153.5t-121.5 -57.5q-49 0 -104 43l-90 70q-39 27 -70 27t-53 -31q-9 -15 -11.5 -33l-5 -36t-8 -28t-22.5 -10q-24 0 -44 36.5t-20 97.5zM444 530q0 -98 46 -161.5t106 -63.5q62 0 108 62.5t46 162.5 q0 65 -21 116t-57 79.5t-76 28.5t-75.5 -28t-56 -80t-20.5 -116z" />
<glyph unicode="&#xf6;" horiz-adv-x="940" d="M43 487q0 114 30 209.5t86 160.5t133.5 98.5t176.5 33.5q131 0 227.5 -58.5t148.5 -171t52 -267.5q0 -159 -51 -273.5t-147 -173.5t-230 -59q-128 0 -225 59.5t-149 172.5t-52 269zM149 1298q0 61 43.5 104.5t102.5 43.5q40 0 73.5 -19.5t52.5 -53t19 -75.5 q0 -59 -42 -101t-103 -42q-60 0 -103 42t-43 101zM444 530q0 -98 46 -161.5t106 -63.5q62 0 108 62.5t46 162.5q0 65 -21 116t-57 79.5t-76 28.5t-75.5 -28t-56 -80t-20.5 -116zM506 1298q0 62 42 105t103 43q40 0 74 -20t53 -53t19 -75q0 -59 -42 -101t-104 -42 q-61 0 -103 42t-42 101z" />
<glyph unicode="&#xf7;" horiz-adv-x="1706" d="M254 496v231h1198v-231h-1198zM688 205q0 69 49.5 117.5t116.5 48.5q68 0 116 -48t48 -118q0 -68 -47 -116t-117 -48q-67 0 -116.5 47.5t-49.5 116.5zM688 1016q0 69 49.5 117.5t116.5 48.5t115.5 -48.5t48.5 -117.5q0 -67 -47.5 -115.5t-118.5 -48.5q-68 0 -116 48 t-48 116z" />
<glyph unicode="&#xf8;" horiz-adv-x="969" d="M51 487q0 114 30 209.5t86 160.5t133.5 98.5t176.5 33.5q86 0 157 -27t138 -88l55 82q49 74 80 74q7 0 19 -4q14 -17 14 -33q0 -27 -35 -84l-69 -114q69 -131 69 -303q0 -119 -28.5 -212.5t-85 -160t-136 -100t-178.5 -33.5q-81 0 -143 22l-60 -88q-52 -78 -86 -78 q-11 0 -19.5 7.5t-8.5 17.5q0 27 43 100l47 82q-96 52 -147.5 164t-51.5 274zM453 530q0 -58 22 -116l201 313q-34 27 -72 27q-40 0 -75 -29t-55.5 -80t-20.5 -115zM541 326q31 -21 63 -21q62 0 108 62.5t46 162.5q0 58 -19 109z" />
<glyph unicode="&#xf9;" horiz-adv-x="1118" d="M68 428q0 216 13.5 326t57 163.5t133.5 53.5q94 0 133 -33t39 -111q0 -98 -0.5 -129.5t-1.5 -62.5q0 -204 27.5 -321t69.5 -117q41 0 68.5 90t27.5 248q0 23 -2 67t-2 66q0 98 6 151.5t25 87.5t54.5 49t100.5 15q67 0 105 -25.5t63 -87.5q7 -17 17.5 -89.5t19 -195.5 t8.5 -264v-82q0 -91 -14 -142.5t-51.5 -76t-110.5 -24.5q-164 0 -170 112q-48 -34 -97 -57.5t-99 -35t-105 -11.5q-159 0 -237 108.5t-78 327.5zM301 1448q0 34 33.5 58t89.5 24q62 0 104 -16t54 -41l159 -312q6 -12 6 -26q0 -21 -14.5 -36.5t-38.5 -15.5q-45 0 -115 68 l-266 264q-12 12 -12 33z" />
<glyph unicode="&#xfa;" horiz-adv-x="1118" d="M68 428q0 216 13.5 326t57 163.5t133.5 53.5q94 0 133 -33t39 -111q0 -98 -0.5 -129.5t-1.5 -62.5q0 -204 27.5 -321t69.5 -117q41 0 68.5 90t27.5 248q0 23 -2 67t-2 66q0 98 6 151.5t25 87.5t54.5 49t100.5 15q67 0 105 -25.5t63 -87.5q7 -17 17.5 -89.5t19 -195.5 t8.5 -264v-82q0 -91 -14 -142.5t-51.5 -76t-110.5 -24.5q-164 0 -170 112q-48 -34 -97 -57.5t-99 -35t-105 -11.5q-159 0 -237 108.5t-78 327.5zM373 1130q0 15 6 27l160 311q12 26 53.5 42t103.5 16q55 0 89 -23.5t34 -56.5q0 -23 -12 -35l-266 -264q-68 -68 -115 -68 q-25 0 -39 15t-14 36z" />
<glyph unicode="&#xfb;" horiz-adv-x="1118" d="M68 428q0 216 13.5 326t57 163.5t133.5 53.5q94 0 133 -33t39 -111q0 -98 -0.5 -129.5t-1.5 -62.5q0 -204 27.5 -321t69.5 -117q41 0 68.5 90t27.5 248q0 23 -2 67t-2 66q0 98 6 151.5t25 87.5t54.5 49t100.5 15q67 0 105 -25.5t63 -87.5q7 -17 17.5 -89.5t19 -195.5 t8.5 -264v-82q0 -91 -14 -142.5t-51.5 -76t-110.5 -24.5q-164 0 -170 112q-48 -34 -97 -57.5t-99 -35t-105 -11.5q-159 0 -237 108.5t-78 327.5zM274 1130q0 66 56 187q56 118 116.5 181t112.5 63q91 0 197 -172q29 -48 50.5 -99t31.5 -91t10 -64q0 -50 -35 -50 q-61 0 -254 240q-188 -242 -252 -242q-33 0 -33 47z" />
<glyph unicode="&#xfc;" horiz-adv-x="1118" d="M68 428q0 216 13.5 326t57 163.5t133.5 53.5q94 0 133 -33t39 -111q0 -98 -0.5 -129.5t-1.5 -62.5q0 -204 27.5 -321t69.5 -117q41 0 68.5 90t27.5 248q0 23 -2 67t-2 66q0 98 6 151.5t25 87.5t54.5 49t100.5 15q67 0 105 -25.5t63 -87.5q7 -17 17.5 -89.5t19 -195.5 t8.5 -264v-82q0 -91 -14 -142.5t-51.5 -76t-110.5 -24.5q-164 0 -170 112q-48 -34 -97 -57.5t-99 -35t-105 -11.5q-159 0 -237 108.5t-78 327.5zM237 1298q0 61 43.5 104.5t102.5 43.5q40 0 73.5 -19.5t52.5 -53t19 -75.5q0 -59 -42 -101t-103 -42q-60 0 -103 42t-43 101z M594 1298q0 62 42 105t103 43q40 0 74 -20t53 -53t19 -75q0 -59 -42 -101t-104 -42q-61 0 -103 42t-42 101z" />
<glyph unicode="&#xfd;" horiz-adv-x="903" d="M-145 -246q0 90 56.5 145.5t147.5 55.5q181 0 228 -281q70 121 106 252l-418 852q-6 12 -6 27q0 36 103 106q101 68 170 68q59 0 101.5 -41.5t84.5 -130.5l154 -320l123 433q11 43 73 43q47 0 76 -21.5t29 -54.5q0 -5 -4 -21l-277 -837q-62 -185 -124.5 -300t-146.5 -173 t-198 -58q-116 0 -197 75t-81 181zM283 1130q0 15 6 27l160 311q12 26 53.5 42t103.5 16q55 0 89 -23.5t34 -56.5q0 -23 -12 -35l-266 -264q-68 -68 -115 -68q-25 0 -39 15t-14 36z" />
<glyph unicode="&#xfe;" horiz-adv-x="999" d="M66 623q0 201 7 360t17 261.5t21 152.5q11 59 47 85.5t106 26.5q75 0 114.5 -28t41.5 -84l12 -471q91 63 203 63q107 0 178 -41.5t106 -125.5t35 -214q0 -242 -123 -402.5t-362 -228.5v-368q0 -51 -39 -82t-106 -31q-51 0 -82 11t-51 36t-31 66q-22 89 -62 448 q-32 298 -32 566zM309 332q0 -89 49.5 -148t116.5 -59q45 0 83 27t60.5 74t22.5 106t-22.5 106t-60 74t-83.5 27q-45 0 -83 -27t-60.5 -74t-22.5 -106z" />
<glyph unicode="&#xff;" horiz-adv-x="903" d="M-145 -246q0 90 56.5 145.5t147.5 55.5q181 0 228 -281q70 121 106 252l-418 852q-6 12 -6 27q0 36 103 106q101 68 170 68q59 0 101.5 -41.5t84.5 -130.5l154 -320l123 433q11 43 73 43q47 0 76 -21.5t29 -54.5q0 -5 -4 -21l-277 -837q-62 -185 -124.5 -300t-146.5 -173 t-198 -58q-116 0 -197 75t-81 181zM147 1298q0 61 43.5 104.5t102.5 43.5q40 0 73.5 -19.5t52.5 -53t19 -75.5q0 -59 -42 -101t-103 -42q-60 0 -103 42t-43 101zM504 1298q0 62 42 105t103 43q40 0 74 -20t53 -53t19 -75q0 -59 -42 -101t-104 -42q-61 0 -103 42t-42 101z " />
<glyph unicode="&#x152;" horiz-adv-x="1647" d="M80 688q0 165 37.5 295t110 221t171 138t222.5 47q118 0 237 -52q43 30 115.5 41t183.5 11q250 0 369 -36t119 -114q0 -94 -80 -94q6 0 -70 7.5t-166 10.5q-20 -8 -28 -51t-9.5 -95t-3.5 -231l246 -30q20 -3 35.5 -22.5t15.5 -43.5q0 -28 -13.5 -47t-35.5 -25l-250 -55 q-4 -110 -4 -147q0 -198 41 -215q77 2 155 10t83 8q39 0 60 -24t21 -66q0 -86 -111.5 -121t-359.5 -35q-133 0 -200 12t-105 54q-114 -57 -245 -57q-162 0 -285 83.5t-189.5 242t-66.5 380.5zM584 743q0 -236 46 -345t150 -109q73 0 117.5 48.5t65 148t20.5 257.5 q0 152 -20.5 247t-65 141.5t-117.5 46.5q-103 0 -149.5 -105.5t-46.5 -329.5z" />
<glyph unicode="&#x153;" horiz-adv-x="1370" d="M61 487q0 114 30 209.5t86 160.5t133.5 98.5t176.5 33.5q127 0 234 -65q101 65 229 65q408 0 408 -272q0 -131 -99.5 -219t-252.5 -88q-43 0 -82 6q13 -100 61.5 -155.5t118.5 -55.5q33 0 87 20.5t77 20.5q49 0 49 -53q0 -43 -47.5 -92t-133 -82t-186.5 -33 q-127 0 -196 77q-123 -77 -267 -77q-128 0 -225 59.5t-149 172.5t-52 269zM463 530q0 -98 46 -161.5t105 -63.5q62 0 108 62.5t46 162.5q0 65 -21 116t-57 79.5t-76 28.5q-41 0 -76 -28.5t-55 -80t-20 -115.5zM942 709q0 -72 39 -120t94 -48q57 0 96 47.5t39 120.5t-39 119 t-96 46q-55 0 -94 -47t-39 -118z" />
<glyph unicode="&#x178;" horiz-adv-x="1075" d="M-25 1147q0 32 44 81t122 99q98 62 176 62q74 0 119.5 -56.5t98.5 -191.5l159 -410l191 582q8 23 37 42t63 19q115 0 115 -123q0 -67 -31.5 -153t-122.5 -300.5t-141 -353.5q-3 -113 -7 -218t-22 -152.5t-65 -68.5t-146 -21q-87 0 -133.5 19t-64.5 61.5t-21 90.5t-10 230 q-125 233 -204.5 390t-118 246.5t-38.5 125.5zM278 1710q0 61 43.5 104.5t102.5 43.5q40 0 73.5 -19.5t52.5 -53t19 -75.5q0 -59 -42 -101t-103 -42q-60 0 -103 42t-43 101zM635 1710q0 62 42 105t103 43q40 0 74 -20t53 -53t19 -75q0 -59 -42 -101t-104 -42q-61 0 -103 42 t-42 101z" />
<glyph unicode="&#x2c6;" d="M227 1130q0 66 56 187q56 118 116.5 181t112.5 63q91 0 197 -172q29 -48 50.5 -99t31.5 -91t10 -64q0 -50 -35 -50q-61 0 -254 240q-188 -242 -252 -242q-33 0 -33 47z" />
<glyph unicode="&#x2dc;" d="M215 1260q0 99 45.5 156t116.5 57q55 0 110 -43l91 -70q31 -27 69 -27q39 0 55 31q11 20 15 51t9 43t22 12q25 0 44 -36.5t19 -98.5q0 -96 -46.5 -153.5t-121.5 -57.5q-49 0 -104 43l-90 70q-39 27 -70 27t-53 -31q-9 -15 -11.5 -33l-5 -36t-8 -28t-22.5 -10 q-24 0 -44 36.5t-20 97.5z" />
<glyph unicode="&#x2000;" horiz-adv-x="986" />
<glyph unicode="&#x2001;" horiz-adv-x="1973" />
<glyph unicode="&#x2002;" horiz-adv-x="986" />
<glyph unicode="&#x2003;" horiz-adv-x="1973" />
<glyph unicode="&#x2004;" horiz-adv-x="657" />
<glyph unicode="&#x2005;" horiz-adv-x="493" />
<glyph unicode="&#x2006;" horiz-adv-x="328" />
<glyph unicode="&#x2007;" horiz-adv-x="328" />
<glyph unicode="&#x2008;" horiz-adv-x="246" />
<glyph unicode="&#x2009;" horiz-adv-x="394" />
<glyph unicode="&#x200a;" horiz-adv-x="109" />
<glyph unicode="&#x2010;" horiz-adv-x="696" d="M76 496q0 55 11.5 79.5t42 31.5t101.5 7h103q31 0 49.5 -0.5t40.5 -1.5h47q60 0 85.5 -7.5t34.5 -31.5t9 -79q0 -56 -10.5 -79t-37.5 -29.5t-89 -6.5h-37q-28 0 -48 -0.5t-46 -1.5q-23 1 -43.5 1.5t-63.5 0.5q-73 0 -100.5 6t-38 29t-10.5 82z" />
<glyph unicode="&#x2011;" horiz-adv-x="696" d="M76 496q0 55 11.5 79.5t42 31.5t101.5 7h103q31 0 49.5 -0.5t40.5 -1.5h47q60 0 85.5 -7.5t34.5 -31.5t9 -79q0 -56 -10.5 -79t-37.5 -29.5t-89 -6.5h-37q-28 0 -48 -0.5t-46 -1.5q-23 1 -43.5 1.5t-63.5 0.5q-73 0 -100.5 6t-38 29t-10.5 82z" />
<glyph unicode="&#x2012;" horiz-adv-x="696" d="M76 496q0 55 11.5 79.5t42 31.5t101.5 7h103q31 0 49.5 -0.5t40.5 -1.5h47q60 0 85.5 -7.5t34.5 -31.5t9 -79q0 -56 -10.5 -79t-37.5 -29.5t-89 -6.5h-37q-28 0 -48 -0.5t-46 -1.5q-23 1 -43.5 1.5t-63.5 0.5q-73 0 -100.5 6t-38 29t-10.5 82z" />
<glyph unicode="&#x2013;" horiz-adv-x="1116" d="M98 496q0 87 49 102q26 8 74.5 11t123 4t216.5 1q43 0 75 -0.5t71 -1.5h100q102 0 144 -6.5t61.5 -30.5t19.5 -81q0 -86 -49 -101q-33 -10 -140 -13t-284 -3q-171 0 -275 3t-137 13q-49 15 -49 103z" />
<glyph unicode="&#x2014;" horiz-adv-x="1542" d="M109 496q0 87 53 102q41 11 167 13.5t431 2.5q311 0 439.5 -2.5t166.5 -13.5q55 -15 55 -104q0 -86 -55 -101q-37 -10 -177 -13t-378 -3q-73 1 -136.5 1.5t-189.5 0.5q-19 0 -48 -0.5t-68 -1.5q-117 0 -165.5 6.5t-71.5 31.5t-23 81z" />
<glyph unicode="&#x2018;" horiz-adv-x="565" d="M55 1196q0 94 40 170.5t110.5 121t159.5 44.5q104 0 104 -45q0 -19 -38 -28t-56 -17q-88 -41 -94 -135l41 2h6q58 0 100.5 -45t42.5 -113q0 -85 -58 -139t-147 -54q-99 0 -155 63t-56 175z" />
<glyph unicode="&#x2019;" horiz-adv-x="565" d="M96 1339q0 83 57.5 138t147.5 55q101 0 156 -61.5t55 -176.5q0 -94 -39.5 -170.5t-110 -121t-159.5 -44.5q-105 0 -105 46q0 14 9 18t34.5 10t51.5 17q42 17 66.5 51.5t27.5 83.5l-41 -2h-6q-59 0 -101.5 45t-42.5 112z" />
<glyph unicode="&#x201a;" horiz-adv-x="522" d="M47 184q0 83 57.5 138t147.5 55q101 0 156 -61.5t55 -176.5q0 -94 -39.5 -170.5t-110 -121t-159.5 -44.5q-105 0 -105 45q0 15 9.5 19.5t35 10t49.5 16.5q87 38 95 135l-41 -2h-7q-59 0 -101 45t-42 112z" />
<glyph unicode="&#x201c;" d="M66 1196q0 94 39.5 170.5t110 121t159.5 44.5q104 0 104 -45q0 -18 -36.5 -27t-57.5 -18q-88 -40 -94 -135l41 2h6q58 0 100.5 -45.5t42.5 -112.5q0 -85 -58 -139t-147 -54q-99 0 -154.5 62.5t-55.5 175.5zM502 1196q0 94 39.5 170.5t110 121t159.5 44.5q104 0 104 -45 q0 -19 -38.5 -28.5t-55.5 -16.5q-88 -42 -94 -135l41 2h6q58 0 101 -45.5t43 -112.5q0 -55 -26.5 -99t-73.5 -69t-105 -25q-99 0 -155 63t-56 175z" />
<glyph unicode="&#x201d;" d="M106 1339q0 83 58 138t147 55q101 0 156 -61.5t55 -176.5q0 -94 -39.5 -170.5t-110 -121t-159.5 -44.5q-104 0 -104 46q0 19 37 28t55 17q90 40 96 135l-41 -2h-6q-59 0 -101.5 45t-42.5 112zM543 1339q0 83 57.5 138t147.5 55q101 0 155.5 -61.5t54.5 -176.5 q0 -94 -39.5 -170.5t-110 -121t-159.5 -44.5q-104 0 -104 46q0 14 9 18.5t34 10t51 16.5q42 17 66.5 51.5t27.5 83.5l-41 -2h-6q-59 0 -101 45t-42 112z" />
<glyph unicode="&#x201e;" horiz-adv-x="961" d="M43 184q0 83 57.5 138t147.5 55q101 0 156 -61.5t55 -176.5q0 -94 -39.5 -170.5t-110 -121t-159.5 -44.5q-105 0 -105 45q0 20 36 28.5t56 17.5q90 39 96 135l-40 -2h-7q-58 0 -100.5 45t-42.5 112zM479 184q0 83 57.5 138t147.5 55q101 0 156 -61.5t55 -176.5 q0 -94 -39.5 -170.5t-110 -121t-159.5 -44.5q-105 0 -105 45q0 15 9 19.5t34 10t51 16.5q89 37 95 135l-41 -2h-6q-59 0 -101.5 45t-42.5 112z" />
<glyph unicode="&#x2022;" horiz-adv-x="926" d="M78 692q0 163 112 277q55 55 124.5 84.5t148.5 29.5q160 0 272 -112q113 -113 113 -277q0 -77 -29 -148t-84 -126q-53 -55 -123.5 -84t-148.5 -29q-160 0 -273 113q-112 114 -112 272z" />
<glyph unicode="&#x2026;" horiz-adv-x="1659" d="M66 166q0 55 25 98.5t69 69.5t98 26q55 0 98.5 -25.5t69 -69.5t25.5 -99q0 -54 -26 -98t-69 -69.5t-98 -25.5q-54 0 -97.5 25.5t-69 69.5t-25.5 98zM616 166q0 42 15 77t41 61.5t60.5 41t76.5 14.5q83 0 137.5 -55.5t54.5 -138.5q0 -80 -55.5 -136.5t-136.5 -56.5 q-55 0 -98 25.5t-69 69.5t-26 98zM1167 166q0 42 15 77t41 61.5t60.5 41t76.5 14.5q81 0 136.5 -55.5t55.5 -138.5q0 -80 -56.5 -136.5t-135.5 -56.5q-55 0 -98 25.5t-69 69.5t-26 98z" />
<glyph unicode="&#x202f;" horiz-adv-x="394" />
<glyph unicode="&#x2039;" horiz-adv-x="836" d="M92 494q0 113 189 235q117 78 225 117t164 39q75 0 75 -45q0 -46 -82 -131.5t-247 -214.5q108 -87 181 -154.5t109.5 -115.5t36.5 -79q0 -45 -75 -45q-56 0 -165 41t-222 115q-189 125 -189 238z" />
<glyph unicode="&#x203a;" horiz-adv-x="836" d="M92 840q0 45 76 45q55 0 162 -38.5t225 -117.5q190 -126 190 -235q0 -112 -188 -238q-116 -77 -224 -116.5t-163 -39.5q-76 0 -76 45q0 46 81 130.5t247 218.5q-330 259 -330 346z" />
<glyph unicode="&#x205f;" horiz-adv-x="493" />
<glyph unicode="&#x2122;" horiz-adv-x="838" d="M20 1313v67h293v-67h-104v-273h-84v273h-105zM381 1040v340h119l80 -204l73 204h117v-340h-80v256l-94 -256h-37l-96 256v-256h-82z" />
<glyph unicode="&#x25fc;" horiz-adv-x="990" d="M0 0v990h990v-990h-990z" />
</font>
</defs>
</svg>
